<?xml version="1.0" encoding="iso-8859-1"?>
<!-- Generator: Adobe Illustrator 19.0.0, SVG Export Plug-In . SVG Version: 6.00 Build 0)  -->
<svg version="1.1" id="Layer_1" xmlns="http://www.w3.org/2000/svg" xmlns:xlink="http://www.w3.org/1999/xlink" x="0px" y="0px"
	 viewBox="0 0 512 512" style="enable-background:new 0 0 512 512;" xml:space="preserve">
<path style="fill:#FFAE18;" d="M488.069,149.484h-34.116c-7.306,0-13.229,5.923-13.229,13.229v81.749
	c0,7.306,5.923,13.229,13.229,13.229h34.116c7.306,0,13.229-5.923,13.229-13.229v-81.749
	C501.297,155.407,495.375,149.484,488.069,149.484z"/>
<rect x="48.041" y="122.42" style="fill:#C2EDFF;" width="355.086" height="148.3"/>
<path style="fill:#0F8EE3;" d="M10.444,122.418L10.444,122.418c0-24.173,19.504-43.95,43.341-43.95h343.598
	c23.838,0,43.341,19.777,43.341,43.95l0,0H10.444z"/>
<rect x="79.456" y="363.555" style="fill:#003A7F;" width="292.246" height="29.242"/>
<path d="M501.556,423.088h-20.102V268.135h6.615c13.053,0,23.672-10.619,23.672-23.673v-81.749
	c0-13.054-10.619-23.673-23.672-23.673h-34.116c-13.054,0-23.673,10.619-23.673,23.673v81.749c0,13.054,10.619,23.673,23.673,23.673
	h6.614v154.953H413.57V270.719v-3.22V132.862h27.154c5.767,0,10.444-4.676,10.444-10.444c0-29.993-24.128-54.394-53.785-54.394
	H53.785C24.128,68.023,0,92.425,0,122.418c0,5.768,4.677,10.444,10.444,10.444h27.154v134.637v3.22v152.369H10.703
	c-5.767,0-10.444,4.676-10.444,10.444s4.677,10.444,10.444,10.444h490.854c5.767,0,10.444-4.676,10.444-10.444
	S507.324,423.088,501.556,423.088z M451.168,244.463v-81.749c0-1.536,1.249-2.785,2.785-2.785h34.116
	c1.535,0,2.784,1.249,2.784,2.785v81.749c0,1.535-1.249,2.785-2.784,2.785h-34.116C452.417,247.248,451.168,245.999,451.168,244.463
	z M392.683,260.275H234.567l127.413-127.413h30.702V260.275z M53.785,88.911h343.598c14.561,0,26.944,9.684,31.262,23.063H22.523
	C26.841,98.596,39.224,88.911,53.785,88.911z M332.44,132.862L205.026,260.275h-45.944l69.115-69.115
	c4.078-4.078,4.078-10.691,0-14.769c-4.079-4.078-10.69-4.078-14.771,0l-83.723,83.724c-0.052,0.052-0.095,0.109-0.146,0.161H58.485
	V132.862H332.44z M58.485,281.163h334.198v141.926h-40.904v-19.843h19.93c5.767,0,10.444-4.676,10.444-10.444v-29.242
	c0-5.768-4.677-10.444-10.444-10.444H79.46c-5.767,0-10.444,4.676-10.444,10.444v29.242c0,5.768,4.677,10.444,10.444,10.444h19.909
	v19.843H58.485V281.163z M89.904,382.358v-8.355h271.362v8.355H89.904z M330.892,403.245v19.843H120.255v-19.843H330.892z"/>
<path d="M244.704,170.327c2.664,0,5.328-1.013,7.366-3.039l0.097-0.096c4.089-4.068,4.106-10.681,0.039-14.769
	c-4.068-4.091-10.681-4.106-14.771-0.04l-0.097,0.096c-4.089,4.068-4.106,10.681-0.039,14.769
	C239.34,169.3,242.021,170.327,244.704,170.327z"/>
<g>
</g>
<g>
</g>
<g>
</g>
<g>
</g>
<g>
</g>
<g>
</g>
<g>
</g>
<g>
</g>
<g>
</g>
<g>
</g>
<g>
</g>
<g>
</g>
<g>
</g>
<g>
</g>
<g>
</g>
</svg>
