<svg width="239" height="124" viewBox="0 0 239 124" fill="none" xmlns="http://www.w3.org/2000/svg">
<g filter="url(#filter0_ddddi_146_317)">
<ellipse rx="3.30172" ry="4.35885" transform="matrix(0.981203 0.192978 -0.148151 0.988965 102.83 8.94791)" fill="#444444" stroke="#F8F8F8"/>
<mask id="path-2-outside-1_146_317" maskUnits="userSpaceOnUse" x="4" y="16.1709" width="231" height="103" fill="black">
<rect fill="white" x="4" y="16.1709" width="231" height="103"/>
<path fill-rule="evenodd" clip-rule="evenodd" d="M63.5192 107.853C62.678 109.724 61.3914 111.397 59.6596 112.871C57.9772 114.345 56.1958 115.082 54.3155 115.082C52.4846 115.082 50.7775 114.77 49.194 114.147C47.6106 113.523 45.9282 112.531 44.1468 111.17C42.415 109.866 40.9552 108.675 39.7677 107.598C38.5801 106.578 36.9719 105.075 34.9431 103.091C32.9144 101.163 31.4794 99.8307 30.6382 99.0936C27.6197 102.439 24.2055 104.111 20.3953 104.111C17.9707 104.111 15.9667 103.403 14.3832 101.985C12.8493 100.568 12.0823 98.6684 12.0823 96.2871C12.0823 93.9625 12.8988 91.9497 14.5317 90.2488C16.2141 88.6046 18.2428 87.7825 20.618 87.7825C22.9931 87.7825 25.3188 88.236 27.595 89.1432C28.8815 85.7981 29.8217 81.6592 30.4155 76.7265C28.2878 78.2573 25.8879 79.0227 23.2158 79.0227C18.7129 79.0227 15.0512 77.1234 12.2307 73.3246C9.41025 69.4692 8 64.4799 8 58.3566C8 52.2332 9.03913 46.5635 11.1174 41.3474C13.1956 36.0745 16.1646 31.7655 20.0242 28.4204C23.9333 25.0185 28.2383 23.3176 32.9391 23.3176C34.572 23.3176 36.1307 23.6011 37.6152 24.1681C41.3264 21.5033 45.0375 20.1709 48.7487 20.1709C52.5094 20.1709 55.3299 21.1915 57.2102 23.2326C56.8143 25.5005 56.1216 27.2581 55.1319 28.5054C53.1526 26.521 50.9507 25.5288 48.526 25.5288C46.1014 25.5288 43.8252 26.0674 41.6975 27.1447C43.9737 29.9228 45.1118 33.5798 45.1118 38.1156C45.1118 41.404 44.6417 44.6075 43.7015 47.7258C42.8108 50.7875 41.3758 53.4239 39.3965 55.6351C37.4172 57.7896 35.2153 58.8668 32.7907 58.8668C30.4155 58.8668 28.6094 57.8179 27.3723 55.7201C26.1353 53.6223 25.5167 50.9292 25.5167 47.6408C25.5167 41.0072 27.8177 34.8555 32.4195 29.1858C28.7578 29.4693 25.7394 32.1624 23.3643 37.2651C21.0386 42.3112 19.8758 48.0093 19.8758 54.3594C19.8758 60.6528 20.5933 64.9901 22.0282 67.3714C23.4632 69.7527 25.2693 70.9434 27.4466 70.9434C31.0588 70.9434 34.3246 68.1935 37.2441 62.6939L43.1819 64.3098C41.2026 76.7265 38.4069 86.3367 34.7947 93.1404C35.5369 93.5939 37.343 94.8129 40.213 96.7973C43.1325 98.8384 45.2355 100.228 46.522 100.965C47.858 101.758 49.6889 102.58 52.0145 103.431C54.3402 104.338 56.4927 104.792 58.472 104.792L61.7001 104.545C64.5844 102.678 95.6191 86.0364 111.987 91.2329C145.977 102.024 156.117 99.0322 177.852 92.6191C183.035 91.0898 188.877 89.366 195.86 87.588C217.384 82.8498 226.927 82.8498 230.108 84.1862C228.057 84.7506 226.951 85.3892 225.125 87.588C205.281 87.8789 190.773 92.1355 177.402 96.0582C157.265 101.966 139.709 107.117 110.397 96.8216C95.7693 92.0875 66.5317 103.087 63.5146 107.84C63.5161 107.845 63.5177 107.849 63.5192 107.853ZM33.0875 53.679C35.1163 53.679 36.7492 52.2049 37.9863 49.2566C39.2728 46.2517 39.9161 42.7931 39.9161 38.881C39.9161 34.9689 38.9759 32.1624 37.0956 30.4615C34.9184 32.616 33.1865 35.224 31.9 38.2857C30.6629 41.3474 30.0444 44.1822 30.0444 46.7903C30.0444 51.3828 31.0588 53.679 33.0875 53.679ZM20.0242 97.7328C21.8056 97.7328 23.488 96.7123 25.0714 94.6712C23.2406 93.5372 21.5829 92.9703 20.0984 92.9703C17.9707 92.9703 16.9068 93.7924 16.9068 95.4366C16.9068 96.1737 17.2285 96.7406 17.8717 97.1375C18.515 97.5344 19.2325 97.7328 20.0242 97.7328ZM125.835 48.4912C125.934 48.3778 126.206 47.6408 126.652 46.28C128.977 46.28 132.095 47.0738 136.004 48.6613C134.767 53.3672 133.777 58.2999 133.035 63.4593C132.293 68.5621 131.921 72.2191 131.921 74.4302C131.921 76.5847 132.119 77.662 132.515 77.662C132.812 77.662 133.901 77.1234 135.781 76.0461L136.672 75.5358L138.008 78.5125C137.562 78.966 136.969 79.533 136.226 80.2134C135.534 80.8937 134.198 81.8293 132.218 83.0199C130.239 84.1538 128.458 84.7208 126.874 84.7208C123.806 84.7208 122.025 83.1333 121.53 79.9582C118.363 83.1333 115.493 84.7208 112.92 84.7208C110.397 84.7208 108.244 83.5869 106.463 81.319C104.731 79.0511 103.865 75.4791 103.865 70.6032C103.865 63.0057 105.226 57.0242 107.947 52.6585C110.669 48.2361 113.959 46.0249 117.819 46.0249C120.59 46.0249 123.262 46.847 125.835 48.4912ZM117.374 77.4919C118.561 77.4919 119.897 76.9533 121.382 75.876C121.728 67.8817 122.891 59.9724 124.87 52.1482C123.386 51.4111 122.124 51.0426 121.085 51.0426C119.303 51.0426 117.769 53.0554 116.483 57.0809C115.246 61.0497 114.627 65.4437 114.627 70.263C114.627 75.0823 115.543 77.4919 117.374 77.4919ZM141.383 83.9554H139.972C139.972 81.2906 140.665 76.1879 142.051 68.6471C143.486 61.1064 144.203 56.8257 144.203 55.8052C144.203 53.9342 143.51 51.9498 142.125 49.852L141.457 48.8314L141.531 47.7258C144.203 46.8753 148.483 46.4501 154.372 46.4501C155.064 47.5274 155.411 49.285 155.411 51.723C159.864 47.9242 163.402 46.0249 166.025 46.0249C169.34 46.0249 171.295 47.9809 171.888 51.8931C173.225 50.6457 174.956 49.37 177.084 48.066C179.261 46.7052 181.191 46.0249 182.874 46.0249C184.605 46.0249 186.04 46.6769 187.179 47.9809C188.317 49.2283 188.886 50.9859 188.886 53.2538C188.886 55.5217 188.341 59.2637 187.253 64.4799C186.164 69.696 185.62 73.2113 185.62 75.0256C185.62 76.7832 185.843 77.662 186.288 77.662C186.585 77.662 187.599 77.1234 189.331 76.0461L190.147 75.5358L191.483 78.5125C190.197 79.9866 188.44 81.404 186.214 82.7648C184.036 84.0688 182.107 84.7208 180.424 84.7208C176.713 84.7208 174.857 82.3112 174.857 77.4919C174.857 75.7343 175.377 72.2191 176.416 66.9462C177.505 61.6166 178.049 58.1581 178.049 56.5706C178.049 54.9264 177.628 54.1043 176.787 54.1043C175.352 54.1043 173.719 54.7279 171.888 55.9753C171.79 57.1092 171.097 60.9646 169.81 67.5415C168.573 74.1184 167.955 79.2212 167.955 82.8498C166.52 83.5869 163.155 83.9554 157.86 83.9554C157.761 83.3317 157.712 81.8292 157.712 79.448C157.712 77.0667 158.281 73.0128 159.419 67.2864C160.607 61.56 161.2 57.9313 161.2 56.4005C161.2 54.8697 160.73 54.1043 159.79 54.1043C158.306 54.1043 156.673 54.7846 154.891 56.1454C154.792 56.6556 154.298 59.1503 153.407 63.6294C151.625 72.5876 150.735 78.966 150.735 82.7648C149.003 83.5585 145.886 83.9554 141.383 83.9554ZM199.156 52.2332C195.445 56.3154 193.59 61.9001 193.59 68.9873C193.59 73.92 194.579 77.7754 196.559 80.5536C198.538 83.3317 201.235 84.7208 204.649 84.7208C208.063 84.7208 211.205 83.8137 214.075 81.9993C215.114 81.319 216.228 80.4685 217.415 79.448C218.603 78.4274 219.395 77.6053 219.79 76.9816L218.009 74.2602L216.896 75.2807C216.154 75.9611 215.114 76.6414 213.778 77.3218C212.442 78.0022 211.181 78.3424 209.993 78.3424C206.529 78.3424 204.624 75.6776 204.278 70.348L206.059 70.0929C208.979 69.5826 212.195 68.3353 215.708 66.3509C217.44 65.3303 218.9 63.8845 220.087 62.0135C221.324 60.1425 221.943 57.8463 221.943 55.1248C221.943 52.3466 221.003 50.1354 219.122 48.4912C217.242 46.847 214.842 46.0249 211.923 46.0249C207.172 46.0249 202.917 48.0943 199.156 52.2332ZM210.216 62.5238C208.731 64.4515 206.727 65.6705 204.204 66.1808C204.204 63.0057 204.698 59.6039 205.688 55.9753C206.727 52.2899 208.187 50.4473 210.067 50.4473C211.651 50.4473 212.442 51.9781 212.442 55.0398C212.442 58.1014 211.7 60.5961 210.216 62.5238ZM49.7043 64.9051C48.4178 70.7449 47.7745 74.8838 47.7745 77.3218C47.7745 79.7031 48.3188 81.5458 49.4074 82.8498C50.5455 84.1538 51.9805 84.8059 53.7124 84.8059C56.9782 84.8059 60.6152 82.9348 64.6233 79.1928C64.7717 80.837 65.3902 82.1694 66.4788 83.19C67.6169 84.2105 68.9777 84.7208 70.5611 84.7208C73.8765 84.7208 76.0961 83.3884 80.5 79.1928L80 75.5C78.4498 76.3359 77.5951 76.9927 77.0976 77.3751C76.7851 77.6152 76.6135 77.747 76.499 77.747C76.0042 77.747 75.7568 77.095 75.7568 75.791C75.7568 74.4302 76.4495 69.8945 77.835 62.1836C79.2205 54.4161 79.9133 49.1999 79.9133 46.5352H78.5031C74.0002 46.5352 70.8828 46.932 69.1509 47.7258C69.1509 51.6379 68.2602 58.1298 66.4788 67.2013C65.6871 71.0568 65.1923 73.6648 64.9944 75.0256C63.114 76.2162 61.4564 76.8115 60.0214 76.8115C59.0318 76.8115 58.5369 76.0461 58.5369 74.5153C58.5369 72.9845 59.2297 69.0723 60.6152 62.7789C62.0007 56.4855 62.6934 52.375 62.6934 50.4473C62.6934 48.5196 62.5697 47.1872 62.3223 46.4501C56.8298 46.4501 52.4011 46.847 49.0363 47.6408L48.9621 48.7464C50.7435 50.9576 51.6341 52.7435 51.6341 54.1043C51.6341 55.4083 50.9909 59.0086 49.7043 64.9051Z"/>
</mask>
<path fill-rule="evenodd" clip-rule="evenodd" d="M63.5192 107.853C62.678 109.724 61.3914 111.397 59.6596 112.871C57.9772 114.345 56.1958 115.082 54.3155 115.082C52.4846 115.082 50.7775 114.77 49.194 114.147C47.6106 113.523 45.9282 112.531 44.1468 111.17C42.415 109.866 40.9552 108.675 39.7677 107.598C38.5801 106.578 36.9719 105.075 34.9431 103.091C32.9144 101.163 31.4794 99.8307 30.6382 99.0936C27.6197 102.439 24.2055 104.111 20.3953 104.111C17.9707 104.111 15.9667 103.403 14.3832 101.985C12.8493 100.568 12.0823 98.6684 12.0823 96.2871C12.0823 93.9625 12.8988 91.9497 14.5317 90.2488C16.2141 88.6046 18.2428 87.7825 20.618 87.7825C22.9931 87.7825 25.3188 88.236 27.595 89.1432C28.8815 85.7981 29.8217 81.6592 30.4155 76.7265C28.2878 78.2573 25.8879 79.0227 23.2158 79.0227C18.7129 79.0227 15.0512 77.1234 12.2307 73.3246C9.41025 69.4692 8 64.4799 8 58.3566C8 52.2332 9.03913 46.5635 11.1174 41.3474C13.1956 36.0745 16.1646 31.7655 20.0242 28.4204C23.9333 25.0185 28.2383 23.3176 32.9391 23.3176C34.572 23.3176 36.1307 23.6011 37.6152 24.1681C41.3264 21.5033 45.0375 20.1709 48.7487 20.1709C52.5094 20.1709 55.3299 21.1915 57.2102 23.2326C56.8143 25.5005 56.1216 27.2581 55.1319 28.5054C53.1526 26.521 50.9507 25.5288 48.526 25.5288C46.1014 25.5288 43.8252 26.0674 41.6975 27.1447C43.9737 29.9228 45.1118 33.5798 45.1118 38.1156C45.1118 41.404 44.6417 44.6075 43.7015 47.7258C42.8108 50.7875 41.3758 53.4239 39.3965 55.6351C37.4172 57.7896 35.2153 58.8668 32.7907 58.8668C30.4155 58.8668 28.6094 57.8179 27.3723 55.7201C26.1353 53.6223 25.5167 50.9292 25.5167 47.6408C25.5167 41.0072 27.8177 34.8555 32.4195 29.1858C28.7578 29.4693 25.7394 32.1624 23.3643 37.2651C21.0386 42.3112 19.8758 48.0093 19.8758 54.3594C19.8758 60.6528 20.5933 64.9901 22.0282 67.3714C23.4632 69.7527 25.2693 70.9434 27.4466 70.9434C31.0588 70.9434 34.3246 68.1935 37.2441 62.6939L43.1819 64.3098C41.2026 76.7265 38.4069 86.3367 34.7947 93.1404C35.5369 93.5939 37.343 94.8129 40.213 96.7973C43.1325 98.8384 45.2355 100.228 46.522 100.965C47.858 101.758 49.6889 102.58 52.0145 103.431C54.3402 104.338 56.4927 104.792 58.472 104.792L61.7001 104.545C64.5844 102.678 95.6191 86.0364 111.987 91.2329C145.977 102.024 156.117 99.0322 177.852 92.6191C183.035 91.0898 188.877 89.366 195.86 87.588C217.384 82.8498 226.927 82.8498 230.108 84.1862C228.057 84.7506 226.951 85.3892 225.125 87.588C205.281 87.8789 190.773 92.1355 177.402 96.0582C157.265 101.966 139.709 107.117 110.397 96.8216C95.7693 92.0875 66.5317 103.087 63.5146 107.84C63.5161 107.845 63.5177 107.849 63.5192 107.853ZM33.0875 53.679C35.1163 53.679 36.7492 52.2049 37.9863 49.2566C39.2728 46.2517 39.9161 42.7931 39.9161 38.881C39.9161 34.9689 38.9759 32.1624 37.0956 30.4615C34.9184 32.616 33.1865 35.224 31.9 38.2857C30.6629 41.3474 30.0444 44.1822 30.0444 46.7903C30.0444 51.3828 31.0588 53.679 33.0875 53.679ZM20.0242 97.7328C21.8056 97.7328 23.488 96.7123 25.0714 94.6712C23.2406 93.5372 21.5829 92.9703 20.0984 92.9703C17.9707 92.9703 16.9068 93.7924 16.9068 95.4366C16.9068 96.1737 17.2285 96.7406 17.8717 97.1375C18.515 97.5344 19.2325 97.7328 20.0242 97.7328ZM125.835 48.4912C125.934 48.3778 126.206 47.6408 126.652 46.28C128.977 46.28 132.095 47.0738 136.004 48.6613C134.767 53.3672 133.777 58.2999 133.035 63.4593C132.293 68.5621 131.921 72.2191 131.921 74.4302C131.921 76.5847 132.119 77.662 132.515 77.662C132.812 77.662 133.901 77.1234 135.781 76.0461L136.672 75.5358L138.008 78.5125C137.562 78.966 136.969 79.533 136.226 80.2134C135.534 80.8937 134.198 81.8293 132.218 83.0199C130.239 84.1538 128.458 84.7208 126.874 84.7208C123.806 84.7208 122.025 83.1333 121.53 79.9582C118.363 83.1333 115.493 84.7208 112.92 84.7208C110.397 84.7208 108.244 83.5869 106.463 81.319C104.731 79.0511 103.865 75.4791 103.865 70.6032C103.865 63.0057 105.226 57.0242 107.947 52.6585C110.669 48.2361 113.959 46.0249 117.819 46.0249C120.59 46.0249 123.262 46.847 125.835 48.4912ZM117.374 77.4919C118.561 77.4919 119.897 76.9533 121.382 75.876C121.728 67.8817 122.891 59.9724 124.87 52.1482C123.386 51.4111 122.124 51.0426 121.085 51.0426C119.303 51.0426 117.769 53.0554 116.483 57.0809C115.246 61.0497 114.627 65.4437 114.627 70.263C114.627 75.0823 115.543 77.4919 117.374 77.4919ZM141.383 83.9554H139.972C139.972 81.2906 140.665 76.1879 142.051 68.6471C143.486 61.1064 144.203 56.8257 144.203 55.8052C144.203 53.9342 143.51 51.9498 142.125 49.852L141.457 48.8314L141.531 47.7258C144.203 46.8753 148.483 46.4501 154.372 46.4501C155.064 47.5274 155.411 49.285 155.411 51.723C159.864 47.9242 163.402 46.0249 166.025 46.0249C169.34 46.0249 171.295 47.9809 171.888 51.8931C173.225 50.6457 174.956 49.37 177.084 48.066C179.261 46.7052 181.191 46.0249 182.874 46.0249C184.605 46.0249 186.04 46.6769 187.179 47.9809C188.317 49.2283 188.886 50.9859 188.886 53.2538C188.886 55.5217 188.341 59.2637 187.253 64.4799C186.164 69.696 185.62 73.2113 185.62 75.0256C185.62 76.7832 185.843 77.662 186.288 77.662C186.585 77.662 187.599 77.1234 189.331 76.0461L190.147 75.5358L191.483 78.5125C190.197 79.9866 188.44 81.404 186.214 82.7648C184.036 84.0688 182.107 84.7208 180.424 84.7208C176.713 84.7208 174.857 82.3112 174.857 77.4919C174.857 75.7343 175.377 72.2191 176.416 66.9462C177.505 61.6166 178.049 58.1581 178.049 56.5706C178.049 54.9264 177.628 54.1043 176.787 54.1043C175.352 54.1043 173.719 54.7279 171.888 55.9753C171.79 57.1092 171.097 60.9646 169.81 67.5415C168.573 74.1184 167.955 79.2212 167.955 82.8498C166.52 83.5869 163.155 83.9554 157.86 83.9554C157.761 83.3317 157.712 81.8292 157.712 79.448C157.712 77.0667 158.281 73.0128 159.419 67.2864C160.607 61.56 161.2 57.9313 161.2 56.4005C161.2 54.8697 160.73 54.1043 159.79 54.1043C158.306 54.1043 156.673 54.7846 154.891 56.1454C154.792 56.6556 154.298 59.1503 153.407 63.6294C151.625 72.5876 150.735 78.966 150.735 82.7648C149.003 83.5585 145.886 83.9554 141.383 83.9554ZM199.156 52.2332C195.445 56.3154 193.59 61.9001 193.59 68.9873C193.59 73.92 194.579 77.7754 196.559 80.5536C198.538 83.3317 201.235 84.7208 204.649 84.7208C208.063 84.7208 211.205 83.8137 214.075 81.9993C215.114 81.319 216.228 80.4685 217.415 79.448C218.603 78.4274 219.395 77.6053 219.79 76.9816L218.009 74.2602L216.896 75.2807C216.154 75.9611 215.114 76.6414 213.778 77.3218C212.442 78.0022 211.181 78.3424 209.993 78.3424C206.529 78.3424 204.624 75.6776 204.278 70.348L206.059 70.0929C208.979 69.5826 212.195 68.3353 215.708 66.3509C217.44 65.3303 218.9 63.8845 220.087 62.0135C221.324 60.1425 221.943 57.8463 221.943 55.1248C221.943 52.3466 221.003 50.1354 219.122 48.4912C217.242 46.847 214.842 46.0249 211.923 46.0249C207.172 46.0249 202.917 48.0943 199.156 52.2332ZM210.216 62.5238C208.731 64.4515 206.727 65.6705 204.204 66.1808C204.204 63.0057 204.698 59.6039 205.688 55.9753C206.727 52.2899 208.187 50.4473 210.067 50.4473C211.651 50.4473 212.442 51.9781 212.442 55.0398C212.442 58.1014 211.7 60.5961 210.216 62.5238ZM49.7043 64.9051C48.4178 70.7449 47.7745 74.8838 47.7745 77.3218C47.7745 79.7031 48.3188 81.5458 49.4074 82.8498C50.5455 84.1538 51.9805 84.8059 53.7124 84.8059C56.9782 84.8059 60.6152 82.9348 64.6233 79.1928C64.7717 80.837 65.3902 82.1694 66.4788 83.19C67.6169 84.2105 68.9777 84.7208 70.5611 84.7208C73.8765 84.7208 76.0961 83.3884 80.5 79.1928L80 75.5C78.4498 76.3359 77.5951 76.9927 77.0976 77.3751C76.7851 77.6152 76.6135 77.747 76.499 77.747C76.0042 77.747 75.7568 77.095 75.7568 75.791C75.7568 74.4302 76.4495 69.8945 77.835 62.1836C79.2205 54.4161 79.9133 49.1999 79.9133 46.5352H78.5031C74.0002 46.5352 70.8828 46.932 69.1509 47.7258C69.1509 51.6379 68.2602 58.1298 66.4788 67.2013C65.6871 71.0568 65.1923 73.6648 64.9944 75.0256C63.114 76.2162 61.4564 76.8115 60.0214 76.8115C59.0318 76.8115 58.5369 76.0461 58.5369 74.5153C58.5369 72.9845 59.2297 69.0723 60.6152 62.7789C62.0007 56.4855 62.6934 52.375 62.6934 50.4473C62.6934 48.5196 62.5697 47.1872 62.3223 46.4501C56.8298 46.4501 52.4011 46.847 49.0363 47.6408L48.9621 48.7464C50.7435 50.9576 51.6341 52.7435 51.6341 54.1043C51.6341 55.4083 50.9909 59.0086 49.7043 64.9051Z" fill="#444444"/>
<path d="M59.6596 112.871L57.0669 109.825C57.0523 109.837 57.0379 109.85 57.0235 109.863L59.6596 112.871ZM63.5192 107.853L67.1674 109.494C67.587 108.56 67.633 107.502 67.2958 106.535L63.5192 107.853ZM44.1468 111.17L46.575 107.991C46.5676 107.986 46.5603 107.98 46.5529 107.975L44.1468 111.17ZM39.7677 107.598L42.4551 104.635C42.4286 104.611 42.4018 104.588 42.3747 104.564L39.7677 107.598ZM34.9431 103.091L37.7401 100.231C37.7263 100.218 37.7124 100.204 37.6984 100.191L34.9431 103.091ZM30.6382 99.0936L33.2742 96.0851C31.6298 94.6442 29.1331 94.7907 27.6684 96.4139L30.6382 99.0936ZM14.3832 101.985L11.6686 104.923C11.684 104.937 11.6996 104.951 11.7153 104.965L14.3832 101.985ZM14.5317 90.2488L11.7359 87.3881C11.7055 87.4178 11.6756 87.448 11.6461 87.4786L14.5317 90.2488ZM27.595 89.1432L26.1141 92.859C27.1074 93.2548 28.2178 93.2365 29.1975 92.8082C30.1772 92.3798 30.9446 91.5771 31.3284 90.5791L27.595 89.1432ZM30.4155 76.7265L34.3868 77.2046C34.5765 75.6286 33.8164 74.0895 32.4496 73.2823C31.0828 72.4751 29.368 72.5525 28.0794 73.4795L30.4155 76.7265ZM12.2307 73.3246L9.0024 75.6864C9.00797 75.694 9.01357 75.7016 9.01919 75.7092L12.2307 73.3246ZM11.1174 41.3474L14.8333 42.8279C14.8351 42.8233 14.837 42.8187 14.8388 42.8141L11.1174 41.3474ZM20.0242 28.4204L22.644 31.4431L22.6501 31.4378L20.0242 28.4204ZM37.6152 24.1681L36.188 27.9048C37.4437 28.3844 38.8563 28.2012 39.9482 27.4172L37.6152 24.1681ZM57.2102 23.2326L61.1506 23.9203C61.3647 22.694 60.9956 21.4379 60.1521 20.5224L57.2102 23.2326ZM55.1319 28.5054L52.2999 31.3302C53.106 32.1384 54.219 32.5637 55.3586 32.499C56.4983 32.4343 57.556 31.8858 58.2655 30.9916L55.1319 28.5054ZM41.6975 27.1447L39.8907 23.576C38.8088 24.1237 38.0338 25.1327 37.7836 26.3192C37.5333 27.5057 37.8348 28.7417 38.6034 29.6797L41.6975 27.1447ZM43.7015 47.7258L39.8718 46.5712C39.868 46.5836 39.8644 46.596 39.8607 46.6085L43.7015 47.7258ZM39.3965 55.6351L42.3422 58.3412C42.3539 58.3285 42.3654 58.3157 42.3769 58.3029L39.3965 55.6351ZM27.3723 55.7201L23.9268 57.7519L23.9268 57.7519L27.3723 55.7201ZM32.4195 29.1858L35.5253 31.7066C36.5328 30.4653 36.7044 28.7433 35.9617 27.3276C35.219 25.9118 33.7047 25.0743 32.1108 25.1977L32.4195 29.1858ZM23.3643 37.2651L19.7379 35.5772C19.7357 35.5817 19.7336 35.5863 19.7315 35.5909L23.3643 37.2651ZM37.2441 62.6939L38.2944 58.8343C36.4907 58.3434 34.5875 59.1673 33.711 60.8184L37.2441 62.6939ZM43.1819 64.3098L47.1321 64.9394C47.4536 62.9221 46.2034 60.9865 44.2323 60.4501L43.1819 64.3098ZM34.7947 93.1404L31.2617 91.2647C30.2698 93.1329 30.904 95.4505 32.7089 96.5535L34.7947 93.1404ZM40.213 96.7973L42.505 93.5191C42.4993 93.5151 42.4936 93.5112 42.4879 93.5072L40.213 96.7973ZM46.522 100.965L48.5651 97.5257C48.547 97.515 48.5287 97.5043 48.5104 97.4938L46.522 100.965ZM52.0145 103.431L53.4681 99.7044C53.4416 99.6941 53.415 99.684 53.3883 99.6742L52.0145 103.431ZM58.472 104.792V108.792C58.5737 108.792 58.6753 108.788 58.7767 108.78L58.472 104.792ZM61.7001 104.545L62.0047 108.533C62.6705 108.483 63.3129 108.266 63.8735 107.903L61.7001 104.545ZM111.987 91.2329L113.197 87.4204L113.197 87.4204L111.987 91.2329ZM177.852 92.6191L176.72 88.7826L176.72 88.7826L177.852 92.6191ZM195.86 87.588L195 83.6816C194.957 83.6909 194.915 83.701 194.873 83.7117L195.86 87.588ZM230.108 84.1862L231.169 88.0429C232.813 87.5907 233.99 86.1461 234.1 84.4446C234.21 82.7431 233.23 81.1589 231.658 80.4984L230.108 84.1862ZM225.125 87.588L225.184 91.5876C226.352 91.5705 227.455 91.0429 228.202 90.1437L225.125 87.588ZM177.402 96.0582L178.528 99.8964L178.528 99.8964L177.402 96.0582ZM110.397 96.8216L111.722 93.0476C111.691 93.0367 111.66 93.0261 111.628 93.016L110.397 96.8216ZM63.5146 107.84L60.1375 105.696C59.4808 106.731 59.3345 108.009 59.7406 109.166L63.5146 107.84ZM37.9863 49.2566L34.3091 47.6823C34.3053 47.6912 34.3016 47.7001 34.2978 47.709L37.9863 49.2566ZM37.0956 30.4615L39.779 27.4951C38.2044 26.0707 35.7913 26.1248 34.2821 27.6182L37.0956 30.4615ZM31.9 38.2857L28.2123 36.7361C28.2052 36.7531 28.1982 36.7701 28.1913 36.7872L31.9 38.2857ZM25.0714 94.6712L28.2319 97.123C28.927 96.227 29.2091 95.0781 29.008 93.962C28.807 92.846 28.1417 91.8677 27.1776 91.2706L25.0714 94.6712ZM126.652 46.28V42.28C124.922 42.28 123.388 43.3919 122.85 45.0358L126.652 46.28ZM125.835 48.4912L123.681 51.8618C125.35 52.9279 127.547 52.6131 128.849 51.1215L125.835 48.4912ZM136.004 48.6613L139.872 49.6783C140.383 47.7337 139.372 45.7118 137.509 44.9553L136.004 48.6613ZM133.035 63.4593L136.993 64.0351L136.994 64.0289L133.035 63.4593ZM135.781 76.0461L133.793 72.5753L133.793 72.5754L135.781 76.0461ZM136.672 75.5358L140.321 73.8979C139.859 72.8677 138.982 72.081 137.908 71.7318C136.835 71.3827 135.663 71.5037 134.683 72.0651L136.672 75.5358ZM138.008 78.5125L140.862 81.3148C142.016 80.1396 142.331 78.3772 141.657 76.8745L138.008 78.5125ZM136.226 80.2134L133.524 77.2647C133.49 77.2958 133.456 77.3274 133.424 77.3596L136.226 80.2134ZM132.218 83.0199L134.207 86.4907C134.231 86.4765 134.256 86.4622 134.28 86.4475L132.218 83.0199ZM121.53 79.9582L125.482 79.3423C125.25 77.8534 124.201 76.6212 122.768 76.1547C121.336 75.6882 119.762 76.0666 118.698 77.1335L121.53 79.9582ZM106.463 81.319L103.284 83.7467C103.295 83.7611 103.306 83.7755 103.317 83.7898L106.463 81.319ZM107.947 52.6585L111.342 54.7745C111.346 54.768 111.35 54.7615 111.354 54.7549L107.947 52.6585ZM121.382 75.876L123.731 79.1134C124.719 78.3967 125.325 77.2683 125.378 76.0492L121.382 75.876ZM124.87 52.1482L128.748 53.1292C129.21 51.3035 128.336 49.403 126.649 48.5655L124.87 52.1482ZM116.483 57.0809L112.673 55.8632C112.67 55.8723 112.667 55.8814 112.664 55.8906L116.483 57.0809ZM139.972 83.9554H135.972C135.972 86.1645 137.763 87.9554 139.972 87.9554V83.9554ZM142.051 68.6471L138.121 67.8993C138.12 67.9077 138.118 67.916 138.116 67.9243L142.051 68.6471ZM142.125 49.852L138.778 52.0426C138.781 52.0472 138.784 52.0518 138.787 52.0564L142.125 49.852ZM141.457 48.8314L137.466 48.5635C137.408 49.4312 137.634 50.2943 138.11 51.022L141.457 48.8314ZM141.531 47.7258L140.318 43.9142C138.752 44.4126 137.65 45.8182 137.54 47.4579L141.531 47.7258ZM154.372 46.4501L157.736 44.2866C157 43.142 155.733 42.4501 154.372 42.4501V46.4501ZM155.411 51.723H151.411C151.411 53.2833 152.318 54.7013 153.735 55.355C155.152 56.0087 156.82 55.7789 158.007 54.7662L155.411 51.723ZM171.888 51.8931L167.934 52.4933C168.156 53.9606 169.173 55.184 170.575 55.6713C171.977 56.1586 173.533 55.8297 174.618 54.8169L171.888 51.8931ZM177.084 48.066L179.174 51.4764C179.184 51.4703 179.194 51.4642 179.204 51.458L177.084 48.066ZM187.179 47.9809L184.165 50.6111C184.184 50.6333 184.204 50.6553 184.224 50.677L187.179 47.9809ZM189.331 76.0461L191.444 79.4427L191.451 79.4381L189.331 76.0461ZM190.147 75.5358L193.797 73.8979C193.323 72.8433 192.417 72.0451 191.311 71.7088C190.205 71.3726 189.008 71.5312 188.027 72.1438L190.147 75.5358ZM191.483 78.5125L194.497 81.1426C195.524 79.966 195.772 78.2993 195.133 76.8745L191.483 78.5125ZM186.214 82.7648L188.269 86.1963C188.279 86.1902 188.289 86.1841 188.299 86.1779L186.214 82.7648ZM176.416 66.9462L172.497 66.1457C172.495 66.1547 172.493 66.1638 172.492 66.1728L176.416 66.9462ZM171.888 55.9753L169.636 52.6695C168.644 53.3455 168.008 54.4314 167.904 55.6275L171.888 55.9753ZM169.81 67.5415L165.885 66.7736C165.883 66.7831 165.881 66.7926 165.879 66.8021L169.81 67.5415ZM167.955 82.8498L169.782 86.4079C171.116 85.7228 171.955 84.3493 171.955 82.8498H167.955ZM157.86 83.9554L153.91 84.5823C154.218 86.5251 155.893 87.9554 157.86 87.9554V83.9554ZM159.419 67.2864L155.502 66.4741C155.5 66.485 155.498 66.4958 155.496 66.5067L159.419 67.2864ZM154.891 56.1454L152.463 52.9667C151.684 53.5616 151.151 54.4217 150.964 55.3837L154.891 56.1454ZM153.407 63.6294L149.484 62.8493L149.484 62.8493L153.407 63.6294ZM150.735 82.7648L152.401 86.401C153.823 85.7494 154.735 84.3288 154.735 82.7648H150.735ZM199.156 52.2332L202.116 54.924L202.117 54.9232L199.156 52.2332ZM214.075 81.9993L216.213 85.3804C216.231 85.369 216.249 85.3575 216.266 85.3458L214.075 81.9993ZM219.79 76.9816L223.168 79.1252C224.009 77.7997 223.997 76.1045 223.137 74.791L219.79 76.9816ZM218.009 74.2602L221.356 72.0695C220.713 71.0873 219.671 70.4371 218.506 70.2912C217.342 70.1452 216.172 70.5183 215.306 71.3115L218.009 74.2602ZM216.896 75.2807L219.599 78.2294L219.599 78.2294L216.896 75.2807ZM204.278 70.348L203.711 66.3884C201.643 66.6847 200.151 68.5226 200.286 70.6075L204.278 70.348ZM206.059 70.0929L206.626 74.0525C206.667 74.0467 206.707 74.0402 206.748 74.0332L206.059 70.0929ZM215.708 66.3509L217.675 69.8337C217.697 69.8217 217.718 69.8095 217.739 69.797L215.708 66.3509ZM220.087 62.0135L216.751 59.8074C216.737 59.8282 216.724 59.849 216.71 59.87L220.087 62.0135ZM219.122 48.4912L221.756 45.4801L221.756 45.4801L219.122 48.4912ZM204.204 66.1808H200.204C200.204 67.3806 200.742 68.5171 201.671 69.2768C202.6 70.0365 203.82 70.3392 204.996 70.1014L204.204 66.1808ZM205.688 55.9753L201.838 54.8897C201.835 54.9007 201.832 54.9118 201.829 54.9228L205.688 55.9753ZM49.7043 64.9051L53.6107 65.7657L53.6124 65.7578L49.7043 64.9051ZM49.4074 82.8498L46.3368 85.4132C46.3555 85.4357 46.3745 85.4579 46.3938 85.48L49.4074 82.8498ZM64.6233 79.1928L68.6071 78.8332C68.4697 77.3116 67.4776 76.0012 66.0504 75.4561C64.6233 74.911 63.0102 75.2264 61.8935 76.269L64.6233 79.1928ZM66.4788 83.19L63.7431 86.1082C63.7646 86.1284 63.7864 86.1483 63.8084 86.168L66.4788 83.19ZM80.5 79.1928L83.2591 82.0889C84.1879 81.204 84.636 79.9274 84.4638 78.6561L80.5 79.1928ZM80 75.5L83.9638 74.9633C83.7877 73.6624 82.9845 72.5308 81.8146 71.9353C80.6447 71.3398 79.257 71.3562 78.1016 71.9792L80 75.5ZM77.0976 77.3751L79.5349 80.5467L79.535 80.5467L77.0976 77.3751ZM77.835 62.1836L81.772 62.891L81.7729 62.886L77.835 62.1836ZM79.9133 46.5352H83.9133C83.9133 44.326 82.1224 42.5352 79.9133 42.5352V46.5352ZM69.1509 47.7258L67.4843 44.0895C66.0625 44.7412 65.1509 46.1618 65.1509 47.7258H69.1509ZM66.4788 67.2013L70.3971 68.006C70.3994 67.9947 70.4017 67.9834 70.4039 67.9721L66.4788 67.2013ZM64.9944 75.0256L67.1343 78.405C68.1205 77.7806 68.7847 76.7565 68.9527 75.6013L64.9944 75.0256ZM62.3223 46.4501L66.1144 45.1772C65.5675 43.5479 64.041 42.4501 62.3223 42.4501V46.4501ZM49.0363 47.6408L48.1179 43.7476C46.4091 44.1507 45.1629 45.621 45.0453 47.3728L49.0363 47.6408ZM48.9621 48.7464L44.9711 48.4784C44.9037 49.4814 45.2165 50.473 45.8472 51.2558L48.9621 48.7464ZM62.2522 115.917C64.3863 114.101 66.0576 111.962 67.1674 109.494L59.8709 106.213C59.2983 107.487 58.3966 108.693 57.0669 109.825L62.2522 115.917ZM54.3155 119.082C57.3431 119.082 60.0293 117.865 62.2956 115.88L57.0235 109.863C55.925 110.825 55.0485 111.082 54.3155 111.082V119.082ZM47.7282 117.868C49.8128 118.69 52.0212 119.082 54.3155 119.082V111.082C52.948 111.082 51.7421 110.851 50.6599 110.425L47.7282 117.868ZM41.7187 114.349C43.7069 115.868 45.7113 117.074 47.7282 117.868L50.6599 110.425C49.5099 109.972 48.1495 109.194 46.575 107.991L41.7187 114.349ZM37.0802 110.561C38.383 111.743 39.943 113.012 41.7408 114.366L46.5529 107.975C44.887 106.72 43.5275 105.608 42.4551 104.635L37.0802 110.561ZM32.1461 105.95C34.1957 107.955 35.8756 109.528 37.1606 110.632L42.3747 104.564C41.2845 103.628 39.7481 102.195 37.7401 100.231L32.1461 105.95ZM28.0021 102.102C28.7756 102.78 30.1574 104.061 32.1879 105.99L37.6984 100.191C35.6713 98.2649 34.1832 96.8815 33.2742 96.0851L28.0021 102.102ZM20.3953 108.111C25.5454 108.111 29.9824 105.791 33.6079 101.773L27.6684 96.4139C25.2571 99.0863 22.8655 100.111 20.3953 100.111V108.111ZM11.7153 104.965C14.1357 107.132 17.1345 108.111 20.3953 108.111V100.111C18.8069 100.111 17.7976 99.673 17.0511 99.0048L11.7153 104.965ZM8.08229 96.2871C8.08229 99.6118 9.19677 102.639 11.6686 104.923L17.0979 99.0473C16.5018 98.4965 16.0823 97.7249 16.0823 96.2871H8.08229ZM11.6461 87.4786C9.30952 89.9126 8.08229 92.9135 8.08229 96.2871H16.0823C16.0823 95.0115 16.488 93.9869 17.4172 93.019L11.6461 87.4786ZM20.618 83.7825C17.2092 83.7825 14.1737 85.0056 11.7359 87.3881L17.3275 93.1095C18.2545 92.2035 19.2765 91.7825 20.618 91.7825V83.7825ZM29.0759 85.4274C26.3438 84.3386 23.5164 83.7825 20.618 83.7825V91.7825C22.4699 91.7825 24.2939 92.1335 26.1141 92.859L29.0759 85.4274ZM26.4442 76.2484C25.8759 80.9693 24.9939 84.7632 23.8616 87.7073L31.3284 90.5791C32.7692 86.833 33.7675 82.3491 34.3868 77.2046L26.4442 76.2484ZM23.2158 83.0227C26.7088 83.0227 29.9293 82.004 32.7516 79.9735L28.0794 73.4795C26.6462 74.5106 25.0669 75.0227 23.2158 75.0227V83.0227ZM9.01919 75.7092C12.5495 80.4638 17.3737 83.0227 23.2158 83.0227V75.0227C20.0521 75.0227 17.553 73.7829 15.4423 70.9401L9.01919 75.7092ZM4 58.3566C4 65.0888 5.55517 70.9743 9.0024 75.6864L15.4591 70.9629C13.2653 67.9642 12 63.8709 12 58.3566H4ZM7.40147 39.8668C5.11919 45.595 4 51.7723 4 58.3566H12C12 52.6942 12.9591 47.532 14.8333 42.8279L7.40147 39.8668ZM17.4044 25.3977C13.006 29.2098 9.68435 34.0747 7.39601 39.8806L14.8388 42.8141C16.7069 38.0743 19.3232 34.3212 22.644 31.4431L17.4044 25.3977ZM32.9391 19.3176C27.1719 19.3176 21.9554 21.4373 17.3983 25.4029L22.6501 31.4378C25.9113 28.5998 29.3047 27.3176 32.9391 27.3176V19.3176ZM39.0424 20.4313C37.0896 19.6855 35.0461 19.3176 32.9391 19.3176V27.3176C34.0979 27.3176 35.1719 27.5167 36.188 27.9048L39.0424 20.4313ZM48.7487 16.1709C44.0234 16.1709 39.5138 17.8804 35.2822 20.9189L39.9482 27.4172C43.1389 25.1262 46.0516 24.1709 48.7487 24.1709V16.1709ZM60.1521 20.5224C57.2738 17.3979 53.2141 16.1709 48.7487 16.1709V24.1709C51.8046 24.1709 53.3859 24.985 54.2683 25.9427L60.1521 20.5224ZM58.2655 30.9916C59.8138 29.0401 60.6878 26.5718 61.1506 23.9203L53.2698 22.5448C52.9409 24.4291 52.4294 25.4761 51.9984 26.0192L58.2655 30.9916ZM48.526 29.5288C49.721 29.5288 50.9442 29.9711 52.2999 31.3302L57.964 25.6806C55.361 23.0709 52.1803 21.5288 48.526 21.5288V29.5288ZM43.5043 30.7134C45.0623 29.9245 46.7183 29.5288 48.526 29.5288V21.5288C45.4845 21.5288 42.5881 22.2103 39.8907 23.576L43.5043 30.7134ZM49.1118 38.1156C49.1118 32.9041 47.7938 28.2739 44.7916 24.6096L38.6034 29.6797C40.1535 31.5717 41.1118 34.2555 41.1118 38.1156H49.1118ZM47.5312 48.8804C48.5854 45.384 49.1118 41.7914 49.1118 38.1156H41.1118C41.1118 41.0167 40.6979 43.8309 39.8718 46.5712L47.5312 48.8804ZM42.3769 58.3029C44.7846 55.6131 46.4971 52.4359 47.5423 48.8431L39.8607 46.6085C39.1246 49.139 37.967 51.2347 36.4161 52.9673L42.3769 58.3029ZM32.7907 62.8668C36.5632 62.8668 39.7749 61.1357 42.3422 58.3412L36.4509 52.929C35.0596 54.4434 33.8674 54.8668 32.7907 54.8668V62.8668ZM23.9268 57.7519C25.8606 61.0313 28.9559 62.8668 32.7907 62.8668V54.8668C31.8751 54.8668 31.3582 54.6045 30.8179 53.6883L23.9268 57.7519ZM21.5167 47.6408C21.5167 51.4024 22.2211 54.8594 23.9268 57.7519L30.8179 53.6883C30.0494 52.3852 29.5167 50.456 29.5167 47.6408H21.5167ZM29.3138 26.665C24.1956 32.9709 21.5167 39.9952 21.5167 47.6408H29.5167C29.5167 42.0192 31.4398 36.7401 35.5253 31.7066L29.3138 26.665ZM26.9907 38.9531C29.1076 34.405 31.1793 33.2938 32.7283 33.1738L32.1108 25.1977C26.3364 25.6448 22.3712 29.9197 19.7379 35.5772L26.9907 38.9531ZM23.8758 54.3594C23.8758 48.5048 24.9456 43.3904 26.997 38.9394L19.7315 35.5909C17.1316 41.232 15.8758 47.5137 15.8758 54.3594H23.8758ZM25.4543 65.3069C25.1051 64.7275 24.6789 63.6058 24.3603 61.6796C24.0488 59.7969 23.8758 57.3723 23.8758 54.3594H15.8758C15.8758 57.6399 16.0615 60.5307 16.4675 62.9853C16.8664 65.3964 17.5164 67.6341 18.6022 69.436L25.4543 65.3069ZM27.4466 66.9434C27.0661 66.9434 26.3954 66.8686 25.4543 65.3069L18.6022 69.436C20.5311 72.6368 23.4726 74.9434 27.4466 74.9434V66.9434ZM33.711 60.8184C30.9643 65.9926 28.7265 66.9434 27.4466 66.9434V74.9434C33.3911 74.9434 37.6849 70.3945 40.7771 64.5694L33.711 60.8184ZM44.2323 60.4501L38.2944 58.8343L36.1937 66.5535L42.1316 68.1694L44.2323 60.4501ZM38.3276 95.0161C42.2358 87.655 45.1214 77.5527 47.1321 64.9394L39.2318 63.6801C37.2838 75.9003 34.578 85.0184 31.2617 91.2647L38.3276 95.0161ZM42.4879 93.5072C39.6528 91.5469 37.7409 90.253 36.8804 89.7272L32.7089 96.5535C33.333 96.9349 35.0332 98.0789 37.9381 100.087L42.4879 93.5072ZM48.5104 97.4938C47.3961 96.8554 45.424 95.5599 42.505 93.5191L37.921 100.076C40.8409 102.117 43.0749 103.6 44.5336 104.435L48.5104 97.4938ZM53.3883 99.6742C51.1758 98.8652 49.6015 98.1415 48.5651 97.5257L44.4789 104.403C46.1145 105.375 48.2019 106.296 50.6408 107.188L53.3883 99.6742ZM58.472 100.792C57.1011 100.792 55.4467 100.476 53.4681 99.7044L50.561 107.157C53.2337 108.2 55.8843 108.792 58.472 108.792V100.792ZM61.3954 100.557L58.1673 100.803L58.7767 108.78L62.0047 108.533L61.3954 100.557ZM63.8735 107.903C65.0248 107.158 73.2298 102.655 83.1697 98.9937C88.1124 97.1731 93.3565 95.6092 98.2749 94.8058C103.254 93.9924 107.545 94.0195 110.777 95.0454L113.197 87.4204C108.245 85.8481 102.518 86.0067 96.9852 86.9104C91.391 87.8242 85.6272 89.5631 80.4046 91.4868C70.0142 95.314 61.2597 100.065 59.5267 101.187L63.8735 107.903ZM110.777 95.0454C127.946 100.496 139.462 102.591 149.599 102.377C159.721 102.163 168.198 99.6379 178.984 96.4556L176.72 88.7826C165.77 92.0134 158.31 94.1909 149.43 94.3785C140.567 94.5657 130.018 92.7605 113.197 87.4204L110.777 95.0454ZM178.984 96.4556C184.167 94.9261 189.945 93.2217 196.847 91.4644L194.873 83.7117C187.809 85.5102 181.902 87.2535 176.72 88.7826L178.984 96.4556ZM196.72 91.4945C207.381 89.1476 214.951 88.0027 220.173 87.5971C225.613 87.1745 227.933 87.611 228.559 87.874L231.658 80.4984C229.103 79.425 225.061 79.1933 219.553 79.6211C213.827 80.066 205.863 81.2903 195 83.6816L196.72 91.4945ZM229.048 80.3295C227.82 80.6671 226.578 81.1068 225.32 81.9412C224.097 82.7529 223.077 83.7937 222.048 85.0324L228.202 90.1437C228.999 89.1836 229.445 88.8057 229.744 88.6072C230.008 88.4316 230.345 88.2697 231.169 88.0429L229.048 80.3295ZM225.066 83.5885C204.636 83.888 189.676 88.2887 176.276 92.22L178.528 99.8964C191.87 95.9823 205.927 91.8699 225.184 91.5876L225.066 83.5885ZM176.276 92.22C166.153 95.19 157.133 97.8213 147.061 98.5258C137.08 99.2238 125.908 98.0301 111.722 93.0476L109.071 100.596C124.197 105.908 136.46 107.287 147.619 106.506C158.687 105.732 168.514 102.834 178.528 99.8964L176.276 92.22ZM111.628 93.016C107.244 91.5972 102.065 91.431 96.9631 91.8941C91.8056 92.3622 86.4289 93.5022 81.4903 94.9308C76.5513 96.3594 71.9468 98.1067 68.3278 99.8401C66.5227 100.705 64.8966 101.597 63.5727 102.482C62.3689 103.287 60.9855 104.361 60.1375 105.696L66.8916 109.984C66.7979 110.131 66.9882 109.822 68.018 109.134C68.9276 108.526 70.195 107.816 71.7837 107.055C74.9525 105.537 79.1373 103.939 83.7132 102.616C88.2895 101.292 93.1535 100.273 97.6862 99.8613C102.274 99.4449 106.235 99.679 109.165 100.627L111.628 93.016ZM67.2958 106.535C67.293 106.527 67.2905 106.52 67.2886 106.515L59.7406 109.166C59.7418 109.169 59.7423 109.171 59.7425 109.171L67.2958 106.535ZM34.2978 47.709C33.8116 48.8678 33.3818 49.3982 33.1534 49.6043C33.0543 49.6938 33.0157 49.7022 33.0411 49.692C33.0716 49.6798 33.0975 49.679 33.0875 49.679V57.679C37.5645 57.679 40.2192 54.2733 41.6748 50.8043L34.2978 47.709ZM35.9161 38.881C35.9161 42.3564 35.3451 45.2627 34.3091 47.6823L41.6635 50.831C43.2006 47.2407 43.9161 43.2299 43.9161 38.881H35.9161ZM34.4122 33.4279C35.0895 34.0405 35.9161 35.4902 35.9161 38.881H43.9161C43.9161 34.4476 42.8624 30.2843 39.779 27.4951L34.4122 33.4279ZM35.5876 39.8353C36.6879 37.217 38.1359 35.0594 39.9092 33.3047L34.2821 27.6182C31.7009 30.1725 29.6851 33.2311 28.2123 36.7361L35.5876 39.8353ZM34.0444 46.7903C34.0444 44.8125 34.5148 42.4914 35.6087 39.7842L28.1913 36.7872C26.811 40.2033 26.0444 43.5519 26.0444 46.7903H34.0444ZM33.0875 49.679C33.3902 49.679 33.8057 49.784 34.1655 50.0555C34.4747 50.2888 34.5268 50.4824 34.4641 50.3405C34.4 50.1955 34.2849 49.8527 34.1919 49.2214C34.1008 48.6029 34.0444 47.801 34.0444 46.7903H26.0444C26.0444 49.2573 26.2981 51.6531 27.1463 53.5732C27.5908 54.5794 28.2769 55.6341 29.3469 56.4415C30.4674 57.287 31.7705 57.679 33.0875 57.679V49.679ZM21.9109 92.2194C20.7289 93.743 20.0859 93.7328 20.0242 93.7328V101.733C23.5252 101.733 26.247 99.6816 28.2319 97.123L21.9109 92.2194ZM20.0984 96.9703C20.5755 96.9703 21.498 97.163 22.9652 98.0718L27.1776 91.2706C24.9832 89.9115 22.5903 88.9703 20.0984 88.9703V96.9703ZM20.9068 95.4366C20.9068 95.4514 20.9046 95.651 20.7792 95.9419C20.6434 96.2567 20.4203 96.5435 20.1506 96.7519C19.9016 96.9443 19.7112 96.9951 19.6999 96.998C19.6944 96.9994 19.811 96.9703 20.0984 96.9703V88.9703C18.6307 88.9703 16.795 89.2347 15.2589 90.4218C13.5271 91.76 12.9068 93.6826 12.9068 95.4366H20.9068ZM19.972 93.7333C20.131 93.8314 20.4065 94.0519 20.6272 94.441C20.8505 94.8345 20.9068 95.2053 20.9068 95.4366H12.9068C12.9068 97.6037 13.9841 99.439 15.7714 100.542L19.972 93.7333ZM20.0242 93.7328C19.9937 93.7328 19.9748 93.731 19.9658 93.7298C19.957 93.7286 19.9552 93.7278 19.9586 93.7288C19.962 93.7297 19.9668 93.7313 19.9713 93.7333C19.9759 93.7353 19.9763 93.7359 19.972 93.7333L15.7714 100.542C17.0767 101.347 18.5276 101.733 20.0242 101.733V93.7328ZM122.85 45.0358C122.632 45.7005 122.471 46.1694 122.361 46.4679C122.335 46.5397 122.314 46.5946 122.298 46.6349C122.281 46.6768 122.274 46.6928 122.276 46.6894C122.277 46.6871 122.282 46.6746 122.292 46.6543C122.301 46.635 122.318 46.5989 122.343 46.5511C122.367 46.5065 122.41 46.4276 122.472 46.3297C122.526 46.2443 122.642 46.0664 122.822 45.861L128.849 51.1215C129.18 50.7421 129.37 50.3764 129.417 50.2878C129.499 50.1335 129.563 49.9915 129.608 49.889C129.699 49.6804 129.787 49.4534 129.866 49.2389C130.028 48.8002 130.225 48.2203 130.453 47.5242L122.85 45.0358ZM137.509 44.9553C133.447 43.3056 129.755 42.28 126.652 42.28V50.28C128.199 50.28 130.743 50.8419 134.499 52.3674L137.509 44.9553ZM136.994 64.0289C137.716 59.0096 138.677 54.2269 139.872 49.6783L132.135 47.6444C130.857 52.5075 129.838 57.5901 129.076 62.8897L136.994 64.0289ZM135.921 74.4302C135.921 72.5354 136.252 69.1307 136.993 64.0351L129.076 62.8835C128.333 67.9934 127.921 71.9027 127.921 74.4302H135.921ZM132.515 73.662C133.452 73.662 134.253 74.0041 134.831 74.4537C135.353 74.859 135.631 75.2984 135.759 75.5291C135.994 75.9567 136.026 76.2534 136.004 76.1312C135.973 75.9619 135.921 75.4499 135.921 74.4302H127.921C127.921 75.5651 127.969 76.669 128.136 77.5769C128.212 77.9934 128.368 78.694 128.752 79.3909C129.109 80.0385 130.257 81.662 132.515 81.662V73.662ZM133.793 72.5754C132.878 73.0996 132.217 73.4569 131.78 73.6729C131.675 73.7248 131.593 73.7638 131.531 73.7919C131.5 73.8058 131.477 73.816 131.46 73.8231C131.443 73.8303 131.436 73.8332 131.437 73.8328C131.438 73.8326 131.452 73.8271 131.478 73.8183C131.502 73.8098 131.549 73.7946 131.613 73.7771C131.675 73.7603 131.777 73.7348 131.909 73.7123C132.035 73.691 132.246 73.662 132.515 73.662V81.662C133.427 81.662 134.193 81.3446 134.336 81.2892C134.666 81.1608 135.007 81.002 135.328 80.8432C135.98 80.5205 136.804 80.0699 137.769 79.5169L133.793 72.5754ZM134.683 72.0651L133.793 72.5753L137.769 79.5169L138.66 79.0066L134.683 72.0651ZM141.657 76.8745L140.321 73.8979L133.022 77.1738L134.358 80.1504L141.657 76.8745ZM138.929 83.162C139.697 82.4581 140.348 81.8386 140.862 81.3148L135.154 75.7101C134.777 76.0935 134.24 76.6079 133.524 77.2647L138.929 83.162ZM134.28 86.4475C136.262 85.2555 137.966 84.1112 139.029 83.0672L133.424 77.3596C133.101 77.6763 132.134 78.403 130.156 79.5923L134.28 86.4475ZM126.874 88.7208C129.396 88.7208 131.873 87.8278 134.207 86.4907L130.23 79.5491C128.605 80.4798 127.519 80.7208 126.874 80.7208V88.7208ZM117.578 80.5742C117.918 82.7597 118.786 84.9214 120.576 86.5164C122.389 88.1325 124.647 88.7208 126.874 88.7208V80.7208C126.447 80.7208 126.192 80.6651 126.059 80.6217C125.939 80.5825 125.905 80.5496 125.899 80.5439C125.89 80.5362 125.831 80.4841 125.751 80.317C125.666 80.1392 125.559 79.8321 125.482 79.3423L117.578 80.5742ZM112.92 88.7208C117.114 88.7208 120.962 86.1922 124.362 82.783L118.698 77.1335C115.765 80.0744 113.873 80.7208 112.92 80.7208V88.7208ZM103.317 83.7898C105.734 86.8671 108.983 88.7208 112.92 88.7208V80.7208C111.81 80.7208 110.754 80.3066 109.608 78.8482L103.317 83.7898ZM99.865 70.6032C99.865 75.7955 100.758 80.4386 103.284 83.7467L109.642 78.8913C108.704 77.6636 107.865 75.1628 107.865 70.6032H99.865ZM104.553 50.5424C101.29 55.777 99.865 62.5921 99.865 70.6032H107.865C107.865 63.4193 109.162 58.2713 111.342 54.7745L104.553 50.5424ZM117.819 42.0249C112.106 42.0249 107.708 45.4148 104.541 50.562L111.354 54.7549C113.629 51.0574 115.813 50.0249 117.819 50.0249V42.0249ZM127.989 45.1206C124.841 43.1088 121.43 42.0249 117.819 42.0249V50.0249C119.75 50.0249 121.683 50.5852 123.681 51.8618L127.989 45.1206ZM119.032 72.6386C117.883 73.4728 117.37 73.4919 117.374 73.4919V81.4919C119.752 81.4919 121.912 80.4338 123.731 79.1134L119.032 72.6386ZM120.992 51.1672C118.947 59.2537 117.744 67.4336 117.385 75.7029L125.378 76.0492C125.712 68.3298 126.835 60.6912 128.748 53.1292L120.992 51.1672ZM121.085 55.0426C121.246 55.0426 121.866 55.1225 123.091 55.7309L126.649 48.5655C124.906 47.6998 123.002 47.0426 121.085 47.0426V55.0426ZM120.293 58.2986C120.877 56.47 121.414 55.4568 121.78 54.9768C122.126 54.5221 121.908 55.0426 121.085 55.0426V47.0426C118.48 47.0426 116.604 48.5694 115.417 50.1276C114.249 51.6603 113.375 53.6662 112.673 55.8632L120.293 58.2986ZM118.627 70.263C118.627 65.7845 119.202 61.7989 120.302 58.2712L112.664 55.8906C111.29 60.3004 110.627 65.1029 110.627 70.263H118.627ZM117.374 73.4919C117.884 73.4919 118.422 73.6928 118.81 74.0334C119.118 74.3035 119.14 74.492 119.053 74.2641C118.859 73.752 118.627 72.534 118.627 70.263H110.627C110.627 72.8113 110.854 75.2077 111.575 77.1052C111.946 78.0821 112.54 79.1742 113.534 80.0468C114.609 80.9898 115.948 81.4919 117.374 81.4919V73.4919ZM139.972 87.9554H141.383V79.9554H139.972V87.9554ZM138.116 67.9243C136.74 75.4152 135.972 80.8693 135.972 83.9554H143.972C143.972 81.712 144.59 76.9605 145.985 69.37L138.116 67.9243ZM140.203 55.8052C140.203 55.7558 140.197 55.9651 140.105 56.6454C140.023 57.2489 139.896 58.0691 139.72 59.1198C139.368 61.2174 138.837 64.1396 138.121 67.8993L145.98 69.3949C146.7 65.6139 147.244 62.6254 147.61 60.4423C147.946 58.4392 148.203 56.7272 148.203 55.8052H140.203ZM138.787 52.0564C139.886 53.7196 140.203 54.9451 140.203 55.8052H148.203C148.203 52.9232 147.135 50.1799 145.463 47.6475L138.787 52.0564ZM138.11 51.022L138.778 52.0426L145.472 47.6613L144.804 46.6408L138.11 51.022ZM137.54 47.4579L137.466 48.5635L145.448 49.0993L145.522 47.9937L137.54 47.4579ZM154.372 42.4501C148.421 42.4501 143.615 42.8648 140.318 43.9142L142.744 51.5374C144.791 50.8859 148.545 50.4501 154.372 50.4501V42.4501ZM159.411 51.723C159.411 49.1024 159.075 46.3687 157.736 44.2866L151.007 48.6137C150.996 48.5957 151.115 48.7826 151.227 49.3497C151.335 49.9013 151.411 50.6776 151.411 51.723H159.411ZM166.025 42.0249C163.794 42.0249 161.581 42.8146 159.512 43.9251C157.407 45.0555 155.169 46.6713 152.815 48.6797L158.007 54.7662C160.106 52.9759 161.864 51.7426 163.296 50.9737C164.766 50.1848 165.633 50.0249 166.025 50.0249V42.0249ZM175.843 51.2928C175.472 48.8444 174.597 46.4563 172.807 44.6646C170.933 42.7897 168.518 42.0249 166.025 42.0249V50.0249C166.847 50.0249 167.067 50.2381 167.148 50.3193C167.312 50.4836 167.712 51.0296 167.934 52.4933L175.843 51.2928ZM174.994 44.6555C172.714 46.0529 170.747 47.486 169.159 48.9692L174.618 54.8169C175.702 53.8054 177.199 52.6872 179.174 51.4764L174.994 44.6555ZM182.874 42.0249C180.145 42.0249 177.467 43.1095 174.964 44.674L179.204 51.458C181.055 50.301 182.237 50.0249 182.874 50.0249V42.0249ZM190.192 45.3508C188.294 43.1757 185.76 42.0249 182.874 42.0249V50.0249C183.451 50.0249 183.787 50.1781 184.165 50.6111L190.192 45.3508ZM192.886 53.2538C192.886 50.3362 192.146 47.4911 190.133 45.2849L184.224 50.677C184.487 50.9655 184.886 51.6356 184.886 53.2538H192.886ZM191.168 65.2971C192.258 60.0742 192.886 55.9742 192.886 53.2538H184.886C184.886 55.0692 184.424 58.4532 183.337 63.6627L191.168 65.2971ZM189.62 75.0256C189.62 73.6909 190.067 70.5761 191.168 65.2971L183.337 63.6627C182.262 68.8159 181.62 72.7316 181.62 75.0256H189.62ZM186.288 73.662C186.924 73.662 187.548 73.8275 188.096 74.1364C188.619 74.4315 188.967 74.7961 189.18 75.0766C189.565 75.5829 189.662 76.0116 189.664 76.0204C189.678 76.0764 189.62 75.8212 189.62 75.0256H181.62C181.62 75.9876 181.672 77.0505 181.909 77.9854C182.023 78.4335 182.259 79.1918 182.811 79.9179C183.45 80.7585 184.628 81.662 186.288 81.662V73.662ZM187.218 72.6496C186.38 73.1708 185.783 73.5191 185.395 73.7252C185.196 73.8309 185.117 73.8643 185.125 73.861C185.13 73.8592 185.21 73.8257 185.345 73.7876C185.415 73.7678 185.525 73.7395 185.666 73.715C185.801 73.6915 186.017 73.662 186.288 73.662V81.662C187.232 81.662 188.007 81.326 188.165 81.261C188.501 81.123 188.839 80.9544 189.147 80.7909C189.774 80.4583 190.55 79.9987 191.444 79.4427L187.218 72.6496ZM188.027 72.1438L187.211 72.6541L191.451 79.4381L192.267 78.9278L188.027 72.1438ZM195.133 76.8745L193.797 73.8979L186.498 77.1738L187.834 80.1504L195.133 76.8745ZM188.299 86.1779C190.765 84.6711 192.871 83.0063 194.497 81.1426L188.47 75.8823C187.523 76.9669 186.116 78.1369 184.128 79.3516L188.299 86.1779ZM180.424 88.7208C183.109 88.7208 185.763 87.6971 188.269 86.1963L184.158 79.3332C182.309 80.4405 181.104 80.7208 180.424 80.7208V88.7208ZM170.857 77.4919C170.857 80.3031 171.379 83.1458 173.08 85.3541C174.933 87.7605 177.632 88.7208 180.424 88.7208V80.7208C179.924 80.7208 179.673 80.6394 179.578 80.5982C179.506 80.5672 179.47 80.5396 179.418 80.4731C179.263 80.2718 178.857 79.5 178.857 77.4919H170.857ZM172.492 66.1728C171.466 71.3746 170.857 75.2769 170.857 77.4919H178.857C178.857 76.1917 179.288 73.0635 180.341 67.7196L172.492 66.1728ZM174.049 56.5706C174.049 57.6739 173.607 60.7094 172.497 66.1457L180.335 67.7467C181.402 62.5239 182.049 58.6423 182.049 56.5706H174.049ZM176.787 58.1043C176.316 58.1043 175.722 57.9788 175.156 57.6098C174.61 57.2542 174.314 56.8187 174.173 56.5427C174.04 56.2843 174.02 56.1241 174.027 56.164C174.032 56.1936 174.049 56.3192 174.049 56.5706H182.049C182.049 55.5371 181.938 54.1574 181.295 52.899C180.943 52.2119 180.384 51.4681 179.523 50.907C178.641 50.3324 177.679 50.1043 176.787 50.1043V58.1043ZM174.141 59.281C175.643 58.2573 176.483 58.1043 176.787 58.1043V50.1043C174.221 50.1043 171.795 51.1986 169.636 52.6695L174.141 59.281ZM173.736 68.3094C174.997 61.8611 175.751 57.7273 175.873 56.3231L167.904 55.6275C167.828 56.4911 167.196 60.0682 165.885 66.7736L173.736 68.3094ZM171.955 82.8498C171.955 79.5954 172.519 74.7812 173.741 68.2809L165.879 66.8021C164.628 73.4556 163.955 78.8469 163.955 82.8498H171.955ZM157.86 87.9554C160.582 87.9554 162.907 87.8615 164.79 87.6552C166.544 87.4632 168.371 87.1329 169.782 86.4079L166.127 79.2917C166.174 79.2675 166.046 79.3371 165.619 79.4356C165.216 79.5284 164.658 79.6219 163.919 79.7028C162.438 79.865 160.433 79.9554 157.86 79.9554V87.9554ZM153.712 79.448C153.712 81.7234 153.751 83.5797 153.91 84.5823L161.811 83.3285C161.813 83.3396 161.801 83.2608 161.786 83.0443C161.772 82.8427 161.758 82.5738 161.747 82.2291C161.724 81.5393 161.712 80.6168 161.712 79.448H153.712ZM155.496 66.5067C154.359 72.2268 153.712 76.6298 153.712 79.448H161.712C161.712 77.5035 162.203 73.7988 163.342 68.0661L155.496 66.5067ZM157.2 56.4005C157.2 57.4311 156.719 60.6084 155.502 66.4741L163.336 68.0986C164.494 62.5115 165.2 58.4316 165.2 56.4005H157.2ZM159.79 58.1043C159.474 58.1043 159.002 58.0362 158.499 57.7633C157.988 57.486 157.644 57.1047 157.439 56.7717C157.102 56.2231 157.2 55.9145 157.2 56.4005H165.2C165.2 55.3557 165.063 53.8989 164.256 52.5849C163.253 50.9519 161.572 50.1043 159.79 50.1043V58.1043ZM157.319 59.3241C158.741 58.2379 159.53 58.1043 159.79 58.1043V50.1043C157.081 50.1043 154.604 51.3313 152.463 52.9667L157.319 59.3241ZM157.33 64.4095C158.219 59.938 158.717 57.4293 158.818 56.907L150.964 55.3837C150.868 55.8819 150.376 58.3626 149.484 62.8493L157.33 64.4095ZM154.735 82.7648C154.735 79.4006 155.549 73.3681 157.33 64.4095L149.484 62.8493C147.702 71.807 146.735 78.5314 146.735 82.7648H154.735ZM141.383 87.9554C145.882 87.9554 149.798 87.5943 152.401 86.401L149.068 79.1285C148.208 79.5227 145.889 79.9554 141.383 79.9554V87.9554ZM197.59 68.9873C197.59 62.603 199.248 58.079 202.116 54.924L196.197 49.5425C191.643 54.5519 189.59 61.1973 189.59 68.9873H197.59ZM199.816 78.2326C198.492 76.3734 197.59 73.4436 197.59 68.9873H189.59C189.59 74.3963 190.667 79.1774 193.301 82.8745L199.816 78.2326ZM204.649 80.7208C202.527 80.7208 201.044 79.9561 199.816 78.2326L193.301 82.8745C196.031 86.7074 199.942 88.7208 204.649 88.7208V80.7208ZM211.938 78.6183C209.711 80.0259 207.311 80.7208 204.649 80.7208V88.7208C208.815 88.7208 212.699 87.6014 216.213 85.3804L211.938 78.6183ZM214.808 76.4143C213.72 77.3493 212.746 78.0883 211.884 78.6528L216.266 85.3458C217.482 84.5496 218.735 83.5877 220.022 82.4817L214.808 76.4143ZM216.413 74.8381C216.415 74.8362 216.317 74.9811 216.019 75.2913C215.735 75.5855 215.339 75.9582 214.808 76.4143L220.022 82.4817C221.252 81.425 222.434 80.2811 223.168 79.1252L216.413 74.8381ZM214.662 76.4508L216.444 79.1723L223.137 74.791L221.356 72.0695L214.662 76.4508ZM219.599 78.2294L220.712 77.2088L215.306 71.3115L214.193 72.3321L219.599 78.2294ZM215.594 80.8862C217.111 80.1135 218.494 79.242 219.599 78.2294L214.193 72.3321C213.813 72.6802 213.118 73.1694 211.963 73.7574L215.594 80.8862ZM209.993 82.3424C211.955 82.3424 213.839 81.7796 215.594 80.8862L211.963 73.7574C211.046 74.2247 210.406 74.3424 209.993 74.3424V82.3424ZM200.286 70.6075C200.48 73.5938 201.132 76.4601 202.712 78.6701C204.465 81.1219 207.057 82.3424 209.993 82.3424V74.3424C209.648 74.3424 209.504 74.2788 209.466 74.2598C209.436 74.2448 209.351 74.2009 209.22 74.0175C208.895 73.5627 208.422 72.4318 208.269 70.0886L200.286 70.6075ZM205.492 66.1333L203.711 66.3884L204.845 74.3076L206.626 74.0525L205.492 66.1333ZM213.741 62.8681C210.491 64.7037 207.711 65.7435 205.37 66.1526L206.748 74.0332C210.246 73.4217 213.899 71.9668 217.675 69.8337L213.741 62.8681ZM216.71 59.87C215.827 61.262 214.81 62.2375 213.677 62.9047L217.739 69.797C220.07 68.4231 221.973 66.5071 223.465 64.1571L216.71 59.87ZM217.943 55.1248C217.943 57.2309 217.47 58.7189 216.751 59.8074L223.424 64.2196C225.178 61.5661 225.943 58.4617 225.943 55.1248H217.943ZM216.489 51.5024C217.398 52.2965 217.943 53.3556 217.943 55.1248H225.943C225.943 51.3377 224.608 47.9744 221.756 45.4801L216.489 51.5024ZM211.923 50.0249C214.047 50.0249 215.459 50.6009 216.489 51.5024L221.756 45.4801C219.026 43.093 215.638 42.0249 211.923 42.0249V50.0249ZM202.117 54.9232C205.266 51.4569 208.501 50.0249 211.923 50.0249V42.0249C205.844 42.0249 200.568 44.7318 196.196 49.5433L202.117 54.9232ZM204.996 70.1014C208.405 69.4123 211.276 67.7026 213.385 64.9643L207.046 60.0833C206.186 61.2005 205.05 61.9288 203.411 62.2601L204.996 70.1014ZM201.829 54.9228C200.762 58.8332 200.204 62.5919 200.204 66.1808H208.204C208.204 63.4196 208.634 60.3746 209.547 57.0277L201.829 54.9228ZM210.067 46.4473C207.605 46.4473 205.707 47.7296 204.427 49.3455C203.226 50.8606 202.422 52.8187 201.838 54.8897L209.538 57.0608C209.993 55.4465 210.438 54.6406 210.698 54.3131C210.807 54.1745 210.81 54.217 210.668 54.2951C210.503 54.3863 210.283 54.4473 210.067 54.4473V46.4473ZM216.442 55.0398C216.442 53.2941 216.238 51.376 215.402 49.7579C214.953 48.8904 214.274 48.017 213.273 47.3721C212.254 46.7154 211.136 46.4473 210.067 46.4473V54.4473C209.79 54.4473 209.365 54.3705 208.939 54.0965C208.533 53.8344 208.348 53.535 208.296 53.4329C208.252 53.3493 208.3 53.4075 208.352 53.7101C208.402 54.0026 208.442 54.4357 208.442 55.0398H216.442ZM213.385 64.9643C215.534 62.1733 216.442 58.7525 216.442 55.0398H208.442C208.442 57.4503 207.866 59.0189 207.046 60.0833L213.385 64.9643ZM51.7745 77.3218C51.7745 75.3671 52.3225 71.613 53.6107 65.7657L45.798 64.0445C44.5131 69.8769 43.7745 74.4006 43.7745 77.3218H51.7745ZM52.4781 80.2864C52.1916 79.9432 51.7745 79.1383 51.7745 77.3218H43.7745C43.7745 80.2679 44.446 83.1483 46.3368 85.4132L52.4781 80.2864ZM53.7124 80.8059C53.1349 80.8059 52.7991 80.6527 52.4211 80.2196L46.3938 85.48C48.292 87.655 50.8261 88.8059 53.7124 88.8059V80.8059ZM61.8935 76.269C58.1569 79.7577 55.4669 80.8059 53.7124 80.8059V88.8059C58.4896 88.8059 63.0735 86.112 67.353 82.1166L61.8935 76.269ZM69.2146 80.2718C68.9197 79.9953 68.6774 79.6124 68.6071 78.8332L60.6395 79.5525C60.866 82.0617 61.8608 84.3435 63.7431 86.1082L69.2146 80.2718ZM70.5611 80.7208C69.9246 80.7208 69.5252 80.549 69.1493 80.212L63.8084 86.168C65.7087 87.8721 68.0308 88.7208 70.5611 88.7208V80.7208ZM77.7409 76.2967C75.57 78.3649 74.2155 79.449 73.1567 80.0465C72.265 80.5496 71.5632 80.7208 70.5611 80.7208V88.7208C72.8744 88.7208 74.9401 88.2258 77.088 87.0139C79.0688 85.8962 81.026 84.2163 83.2591 82.0889L77.7409 76.2967ZM76.0362 76.0367L76.5362 79.7295L84.4638 78.6561L83.9638 74.9633L76.0362 76.0367ZM79.535 80.5467C79.948 80.2293 80.6127 79.7141 81.8984 79.0208L78.1016 71.9792C76.287 72.9577 75.2423 73.7561 74.6602 74.2034L79.535 80.5467ZM76.499 81.747C77.8673 81.747 78.8389 81.0475 78.9139 80.9984C79.1679 80.8323 79.4308 80.6267 79.5349 80.5467L74.6602 74.2034C74.4519 74.3635 74.4728 74.3439 74.5342 74.3038C74.5763 74.2762 74.7467 74.1654 75.0024 74.0542C75.2465 73.9481 75.78 73.747 76.499 73.747V81.747ZM71.7568 75.791C71.7568 76.5814 71.8162 77.659 72.2025 78.6771C72.4063 79.2142 72.7908 79.9768 73.5344 80.6299C74.3585 81.3539 75.4056 81.747 76.499 81.747V73.747C77.3451 73.747 78.1756 74.0587 78.8142 74.6196C79.3722 75.1098 79.6021 75.6279 79.6822 75.8389C79.8211 76.205 79.7568 76.3046 79.7568 75.791H71.7568ZM73.8981 61.4762C73.2028 65.3457 72.6763 68.4465 72.3222 70.7647C71.9875 72.9558 71.7568 74.748 71.7568 75.791H79.7568C79.7568 75.4732 79.8724 74.3172 80.2305 71.9725C80.5692 69.7549 81.0818 66.7324 81.772 62.891L73.8981 61.4762ZM75.9133 46.5352C75.9133 48.7881 75.2927 53.6578 73.8972 61.4812L81.7729 62.886C83.1484 55.1744 83.9133 49.6118 83.9133 46.5352H75.9133ZM78.5031 50.5352H79.9133V42.5352H78.5031V50.5352ZM70.8175 51.3621C71.6776 50.9679 73.997 50.5352 78.5031 50.5352V42.5352C74.0034 42.5352 70.088 42.8962 67.4843 44.0895L70.8175 51.3621ZM70.4039 67.9721C72.1862 58.8957 73.1509 52.065 73.1509 47.7258H65.1509C65.1509 51.2109 64.3342 57.3638 62.5538 66.4306L70.4039 67.9721ZM68.9527 75.6013C69.1313 74.3734 69.6023 71.8764 70.3971 68.006L62.5606 66.3967C61.772 70.2372 61.2533 72.9563 61.036 74.4498L68.9527 75.6013ZM60.0214 80.8115C62.5237 80.8115 64.9387 79.7953 67.1343 78.405L62.8545 71.6461C61.2894 72.6371 60.3891 72.8115 60.0214 72.8115V80.8115ZM54.5369 74.5153C54.5369 75.5836 54.6864 77.075 55.5489 78.4091C56.6055 80.0436 58.3079 80.8115 60.0214 80.8115V72.8115C60.2942 72.8115 60.7278 72.8667 61.2051 73.1128C61.6961 73.366 62.0474 73.7258 62.2672 74.0658C62.6349 74.6346 62.5369 74.9778 62.5369 74.5153H54.5369ZM56.7087 61.9189C56.0104 65.0909 55.4778 67.7024 55.1178 69.7356C54.7751 71.671 54.5369 73.3537 54.5369 74.5153H62.5369C62.5369 74.146 62.6452 73.1073 62.9952 71.1305C63.3279 69.2516 63.8345 66.7603 64.5216 63.639L56.7087 61.9189ZM58.6934 50.4473C58.6934 51.8562 58.1178 55.5183 56.7087 61.9189L64.5216 63.639C65.8835 57.4527 66.6934 52.8938 66.6934 50.4473H58.6934ZM58.5303 47.723C58.5101 47.663 58.5672 47.8269 58.6178 48.372C58.6645 48.8748 58.6934 49.5582 58.6934 50.4473H66.6934C66.6934 48.5408 66.5934 46.6042 66.1144 45.1772L58.5303 47.723ZM49.9547 51.5339C52.896 50.84 56.9808 50.4501 62.3223 50.4501V42.4501C56.6787 42.4501 51.9062 42.8539 48.1179 43.7476L49.9547 51.5339ZM52.9531 49.0143L53.0273 47.9087L45.0453 47.3728L44.9711 48.4784L52.9531 49.0143ZM55.6341 54.1043C55.6341 51.2559 53.9173 48.5212 52.077 46.2369L45.8472 51.2558C46.6264 52.2231 47.1109 52.9765 47.3866 53.5294C47.6746 54.1068 47.6341 54.2643 47.6341 54.1043H55.6341ZM53.6124 65.7578C54.2605 62.7873 54.7549 60.3576 55.0893 58.486C55.4035 56.7276 55.6341 55.1638 55.6341 54.1043H47.6341C47.6341 54.1042 47.6341 54.11 47.6338 54.1222C47.6335 54.1343 47.6328 54.1514 47.6317 54.1738C47.6294 54.2192 47.6253 54.2805 47.6186 54.3596C47.6049 54.5196 47.5822 54.7284 47.5475 54.9926C47.4779 55.5229 47.3686 56.214 47.214 57.0789C46.9052 58.8077 46.4347 61.1264 45.7963 64.0524L53.6124 65.7578Z" fill="#F8F8F8" mask="url(#path-2-outside-1_146_317)"/>
<g filter="url(#filter1_d_146_317)">
<path d="M103.638 68.3247L101.828 14.6388L92.1231 65.5318L103.638 68.3247Z" fill="#F15555"/>
<path d="M101.828 14.6388L80.6085 62.7389L92.1231 65.5318L101.828 14.6388Z" fill="#F15555"/>
<path d="M83.6047 113.277L103.638 68.3247L92.1231 65.5318L83.6047 113.277Z" fill="#444444"/>
<path d="M83.6047 113.277L92.1231 65.5318L80.6085 62.7389L83.6047 113.277Z" fill="#444444"/>
<path d="M80.6085 62.7389L79.93 62.3985C79.8823 62.5064 79.8612 62.6258 79.8684 62.7466L80.6085 62.7389ZM101.828 14.6388L102.569 14.6509C102.557 14.2973 102.308 13.9866 101.969 13.9023C101.629 13.8179 101.289 13.9823 101.15 14.2984L101.828 14.6388ZM103.638 68.3247L104.315 68.6676C104.361 68.565 104.383 68.4519 104.379 68.3368L103.638 68.3247ZM83.6047 113.277L82.8646 113.285C82.8853 113.635 83.1364 113.936 83.4727 114.016C83.8089 114.095 84.1432 113.932 84.2821 113.62L83.6047 113.277ZM81.2871 63.0793L102.507 14.9792L101.15 14.2984L79.93 62.3985L81.2871 63.0793ZM101.087 14.6267L102.897 68.3126L104.379 68.3368L102.569 14.6509L101.087 14.6267ZM102.96 67.9818L82.9272 112.934L84.2821 113.62L104.315 68.6676L102.96 67.9818ZM84.3448 113.27L81.3487 62.7311L79.8684 62.7466L82.8646 113.285L84.3448 113.27ZM80.4723 63.4764L91.9868 66.2693L92.2593 64.7943L80.7448 62.0014L80.4723 63.4764ZM91.9868 66.2693L103.501 69.0622L103.774 67.5872L92.2593 64.7943L91.9868 66.2693ZM92.8512 65.7128L102.556 14.8199L101.1 14.4578L91.395 65.3508L92.8512 65.7128ZM84.3344 113.45L92.8528 65.7041L91.3934 65.3595L82.875 113.105L84.3344 113.45Z" fill="#F8F8F8"/>
</g>
</g>
<defs>
<filter id="filter0_ddddi_146_317" x="0" y="0.0857239" width="238.109" height="122.996" filterUnits="userSpaceOnUse" color-interpolation-filters="sRGB">
<feFlood flood-opacity="0" result="BackgroundImageFix"/>
<feColorMatrix in="SourceAlpha" type="matrix" values="0 0 0 0 0 0 0 0 0 0 0 0 0 0 0 0 0 0 127 0" result="hardAlpha"/>
<feOffset dy="2"/>
<feGaussianBlur stdDeviation="1"/>
<feComposite in2="hardAlpha" operator="out"/>
<feColorMatrix type="matrix" values="0 0 0 0 0 0 0 0 0 0 0 0 0 0 0 0 0 0 0.2 0"/>
<feBlend mode="normal" in2="BackgroundImageFix" result="effect1_dropShadow_146_317"/>
<feColorMatrix in="SourceAlpha" type="matrix" values="0 0 0 0 0 0 0 0 0 0 0 0 0 0 0 0 0 0 127 0" result="hardAlpha"/>
<feOffset dy="-2"/>
<feGaussianBlur stdDeviation="1"/>
<feComposite in2="hardAlpha" operator="out"/>
<feColorMatrix type="matrix" values="0 0 0 0 0 0 0 0 0 0 0 0 0 0 0 0 0 0 0.2 0"/>
<feBlend mode="normal" in2="effect1_dropShadow_146_317" result="effect2_dropShadow_146_317"/>
<feColorMatrix in="SourceAlpha" type="matrix" values="0 0 0 0 0 0 0 0 0 0 0 0 0 0 0 0 0 0 127 0" result="hardAlpha"/>
<feOffset dx="-2"/>
<feGaussianBlur stdDeviation="1"/>
<feComposite in2="hardAlpha" operator="out"/>
<feColorMatrix type="matrix" values="0 0 0 0 0 0 0 0 0 0 0 0 0 0 0 0 0 0 0.2 0"/>
<feBlend mode="normal" in2="effect2_dropShadow_146_317" result="effect3_dropShadow_146_317"/>
<feColorMatrix in="SourceAlpha" type="matrix" values="0 0 0 0 0 0 0 0 0 0 0 0 0 0 0 0 0 0 127 0" result="hardAlpha"/>
<feOffset dx="2"/>
<feGaussianBlur stdDeviation="1"/>
<feComposite in2="hardAlpha" operator="out"/>
<feColorMatrix type="matrix" values="0 0 0 0 0 0 0 0 0 0 0 0 0 0 0 0 0 0 0.2 0"/>
<feBlend mode="normal" in2="effect3_dropShadow_146_317" result="effect4_dropShadow_146_317"/>
<feBlend mode="normal" in="SourceGraphic" in2="effect4_dropShadow_146_317" result="shape"/>
<feColorMatrix in="SourceAlpha" type="matrix" values="0 0 0 0 0 0 0 0 0 0 0 0 0 0 0 0 0 0 127 0" result="hardAlpha"/>
<feOffset dx="0.5" dy="1"/>
<feGaussianBlur stdDeviation="1"/>
<feComposite in2="hardAlpha" operator="arithmetic" k2="-1" k3="1"/>
<feColorMatrix type="matrix" values="0 0 0 0 1 0 0 0 0 1 0 0 0 0 1 0 0 0 0.35 0"/>
<feBlend mode="normal" in2="shape" result="effect5_innerShadow_146_317"/>
</filter>
<filter id="filter1_d_146_317" x="75.867" y="9.88034" width="32.5121" height="108.155" filterUnits="userSpaceOnUse" color-interpolation-filters="sRGB">
<feFlood flood-opacity="0" result="BackgroundImageFix"/>
<feColorMatrix in="SourceAlpha" type="matrix" values="0 0 0 0 0 0 0 0 0 0 0 0 0 0 0 0 0 0 127 0" result="hardAlpha"/>
<feOffset/>
<feGaussianBlur stdDeviation="2"/>
<feComposite in2="hardAlpha" operator="out"/>
<feColorMatrix type="matrix" values="0 0 0 0 1 0 0 0 0 1 0 0 0 0 1 0 0 0 0.25 0"/>
<feBlend mode="normal" in2="BackgroundImageFix" result="effect1_dropShadow_146_317"/>
<feBlend mode="normal" in="SourceGraphic" in2="effect1_dropShadow_146_317" result="shape"/>
</filter>
</defs>
</svg>
