<svg width="15" height="16" viewBox="0 0 15 16" fill="none" xmlns="http://www.w3.org/2000/svg">
<g clip-path="url(#clip0_109_1227)">
<path d="M7.5 0.5C3.35276 0.5 0 3.85276 0 8C0 12.1472 3.35276 15.5 7.5 15.5C11.6472 15.5 15 12.1503 15 8C15 3.84969 11.6503 0.5 7.5 0.5ZM8.13804 14.2239V13.9049C8.13804 13.5552 7.84969 13.2669 7.5 13.2669C7.15031 13.2669 6.86196 13.5552 6.86196 13.9049V14.2239C3.92331 13.9233 1.57669 11.5767 1.27914 8.6411H1.56442C1.91411 8.6411 2.20245 8.35276 2.20245 8.00307C2.20245 7.65337 1.91411 7.36503 1.56442 7.36503H1.27914C1.57975 4.42638 3.92638 2.07975 6.86196 1.78221V2.06442C6.86196 2.41411 7.15031 2.70245 7.5 2.70245C7.84969 2.70245 8.13804 2.41411 8.13804 2.06442V1.77914C11.0767 2.07975 13.4233 4.42638 13.7209 7.36196H13.4049C13.0552 7.36196 12.7669 7.65031 12.7669 8C12.7669 8.34969 13.0552 8.63804 13.4049 8.63804H13.7239C13.4233 11.5767 11.0767 13.9233 8.13804 14.2239Z" fill="black"/>
<path d="M7.50009 4.3313C7.1504 4.3313 6.86205 4.61964 6.86205 4.96934V7.77608L3.95714 11.3528C3.73322 11.6411 3.79763 12.0215 4.05224 12.2454C4.40806 12.5061 4.78536 12.3098 4.9142 12.1503L8.01236 8.38345C8.07678 8.28835 8.14119 8.15952 8.14119 8.00001V4.96934C8.13812 4.61657 7.85285 4.3313 7.50009 4.3313Z" fill="black"/>
</g>
<defs>
<clipPath id="clip0_109_1227">
<rect width="15" height="15" fill="white" transform="translate(0 0.5)"/>
</clipPath>
</defs>
</svg>
