<svg width="30" height="30" viewBox="0 0 30 30" fill="none" xmlns="http://www.w3.org/2000/svg">
<g clip-path="url(#clip0_109_1192)">
<path d="M15 0C8.74273 0 3.6521 5.09071 3.6521 11.3479C3.6521 13.9289 5.43116 17.7032 8.93973 22.5658C11.4763 26.0813 13.972 28.859 14.0769 28.9756L15.0001 30.0001L15.9233 28.9756C16.0283 28.8591 18.5239 26.0813 21.0605 22.5658C24.5691 17.7032 26.3481 13.929 26.3481 11.3479C26.3481 5.09071 21.2574 0 15 0ZM15 26.2578C11.8741 22.6034 6.13739 15.1177 6.13739 11.3479C6.13739 6.4611 10.1131 2.4853 15 2.4853C19.887 2.4853 23.8627 6.4611 23.8627 11.3479C23.8628 15.1177 18.126 22.6034 15 26.2578Z" fill="#7E7E7E"/>
<path d="M15 15.4649C17.2738 15.4649 19.117 13.6217 19.117 11.3479C19.117 9.07419 17.2738 7.23096 15 7.23096C12.7263 7.23096 10.8831 9.07419 10.8831 11.3479C10.8831 13.6217 12.7263 15.4649 15 15.4649Z" fill="#7E7E7E"/>
</g>
<defs>
<clipPath id="clip0_109_1192">
<rect width="30" height="30" fill="white"/>
</clipPath>
</defs>
</svg>
