<svg width="24" height="35" viewBox="0 0 24 35" fill="none" xmlns="http://www.w3.org/2000/svg">
<path d="M12.2017 5.60001H10.6555C10.2431 5.60001 9.88235 5.96106 9.88235 6.37369V13.1305C9.88235 13.3368 9.98544 13.5432 10.0885 13.6979L14.4179 18.0305C14.7272 18.34 15.191 18.34 15.5003 18.0305L16.5826 16.9474C16.8919 16.6379 16.8919 16.1737 16.5826 15.8642L12.9748 12.2021V6.37369C12.9748 5.96106 12.614 5.60001 12.2017 5.60001Z" fill="#787878"/>
<ellipse cx="12" cy="11.9" rx="10.5882" ry="10.5" stroke="#787878" stroke-width="2"/>
<path d="M1.18143 15.4L11.1214 33.4082C11.5023 34.0984 12.4949 34.0969 12.8738 33.4055L22.3579 16.1C18.3529 23.8 8.47058 25.9 1.18143 15.4Z" fill="#787878" stroke="#787878" stroke-linejoin="round"/>
</svg>
