<svg xmlns="http://www.w3.org/2000/svg" width="40" height="37" fill="#000" xmlns:v="https://vecta.io/nano">
<path d="M8.317 16.466c-.063.443-.063.823-.063 1.267h-3.81c0-.443 0-.823.063-1.267h3.81zm14.858-7.6H21.27c-.508 0-.952.443-.952.95v8.296c0 .253.127.507.254.697l5.333 5.32a.92.92 0 0 0 1.333 0l1.333-1.33c.381-.38.381-.95 0-1.33l-4.444-4.496V9.816c0-.507-.444-.95-.952-.95z"/>
<path d="M22.222 0C12.825 0 5.143 7.283 4.508 16.466c0 .19-.063.443-.063.633H1.587c-.825 0-1.27.95-.762 1.52l4.762 5.763a.97.97 0 0 0 1.46 0l4.762-5.763c.508-.633.063-1.52-.762-1.52H8.254v-.633C8.889 9.373 14.921 3.8 22.159 3.8c8.254 0 14.794 7.156 13.905 15.516-.635 6.016-6.349 11.716-12.444 12.286-4.508.443-8.762-1.203-11.746-4.433-.381-.443-.889-.697-1.397-.063l-1.524 1.837c-.317.38-.063.633.254.95 3.429 3.61 8.127 5.636 13.206 5.573 9.143-.127 16.825-7.346 17.46-16.466C40.698 8.676 32.444 0 22.222 0z"/>
</svg>