<svg width="40" height="37" viewBox="0 0 40 37" fill="none" xmlns="http://www.w3.org/2000/svg">
<path d="M8.31747 16.4656C8.25398 16.9089 8.25398 17.2888 8.25398 17.7321H4.44446C4.44446 17.2888 4.44446 16.9089 4.50795 16.4656H8.31747Z" fill="black"/>
<path d="M23.1746 8.86607H21.2699C20.7619 8.86607 20.3175 9.30938 20.3175 9.81601V18.1121C20.3175 18.3654 20.4445 18.6187 20.5714 18.8087L25.9048 24.1284C26.2857 24.5083 26.8572 24.5083 27.2381 24.1284L28.5714 22.7985C28.9524 22.4185 28.9524 21.8485 28.5714 21.4686L24.127 16.9722V9.81601C24.127 9.30938 23.6826 8.86607 23.1746 8.86607Z" fill="black"/>
<path d="M22.2222 0C12.8254 0 5.14286 7.28284 4.50794 16.4656C4.50794 16.6555 4.44445 16.9089 4.44445 17.0988H1.58731C0.761909 17.0988 0.317464 18.0488 0.825401 18.6187L5.58731 24.3817C5.96826 24.825 6.66667 24.825 7.04762 24.3817L11.8095 18.6187C12.3175 17.9855 11.873 17.0988 11.0476 17.0988H8.25397C8.25397 16.9089 8.25397 16.6555 8.25397 16.4656C8.88889 9.3727 14.9206 3.79974 22.1587 3.79974C30.4127 3.79974 36.9524 10.9559 36.0635 19.3154C35.4286 25.3316 29.7143 31.0312 23.6191 31.6012C19.1111 32.0445 14.8571 30.3979 11.873 27.1682C11.4921 26.7249 10.9841 26.4715 10.4762 27.1048L8.95238 28.9414C8.63492 29.3214 8.88889 29.5747 9.20635 29.8913C12.6349 33.5011 17.3333 35.5276 22.4127 35.4643C31.5556 35.3376 39.2381 28.1181 39.873 18.9987C40.6984 8.67608 32.4444 0 22.2222 0Z" fill="black"/>
</svg>
