<svg width="30" height="30" viewBox="0 0 30 30" fill="none" xmlns="http://www.w3.org/2000/svg">
<path d="M17.2426 12.7444C16.5923 12.0941 16.2029 11.2527 16.1254 10.347L17.1601 9.31219C17.682 8.79035 18.5198 8.79035 19.0417 9.31219L20.5616 10.8321C21.0724 11.343 21.0833 12.192 20.5762 12.7284L19.4625 13.8422C18.6247 13.7314 17.8502 13.352 17.2426 12.7444ZM29.7554 1.81723C29.106 7.15711 26.7585 12.2904 22.7013 16.3475C20.9129 18.1358 18.9275 19.6016 16.8066 20.7367V22.8075C16.8066 23.6651 16.508 24.4958 15.962 25.1573L12.1689 29.7527V22.5187L7.46801 17.8179H0.234375L4.69242 13.96C5.3632 13.3795 6.22078 13.06 7.10801 13.06H9.32039C10.4561 10.9955 11.9116 9.06457 13.6644 7.3118C17.7226 3.25359 22.856 0.906093 28.1959 0.257812C29.0887 0.149179 29.8639 0.924374 29.7554 1.81723ZM22.8875 6.5018C21.1012 5.01609 18.3941 5.1443 16.7525 6.7868C15.0027 8.53769 15.0057 11.4862 16.7532 13.2337C17.435 13.9155 18.3306 14.3735 19.2853 14.5145C21.4761 14.838 23.7163 13.4392 24.347 11.3087C24.857 9.58617 24.2696 7.65129 22.8875 6.5018ZM21.4958 9.87012C21.9111 9.4548 21.9111 8.77863 21.4958 8.36332C21.0805 7.94801 20.4043 7.94801 19.989 8.36332C19.5737 8.77863 19.5737 9.4548 19.989 9.87012C20.4043 10.2854 21.0805 10.2854 21.4958 9.87012ZM10.4557 22.9335L9.9723 22.4501C9.91125 22.5376 9.84375 22.6219 9.76559 22.6999C9.04957 23.4159 6.85383 23.8263 6.02508 23.8477C6.04641 23.0187 6.4568 20.8232 7.17281 20.1071C7.25086 20.0291 7.33523 19.9615 7.42277 19.9004L6.95332 19.431C5.99613 19.4039 5.03004 19.7545 4.29949 20.4852C2.89055 21.894 2.08301 26.2145 2.04117 27.8455C3.67219 27.8037 7.99266 26.9961 9.40148 25.5872C10.1319 24.8568 10.4828 23.8908 10.4557 22.9335Z" fill="black"/>
</svg>
