<svg width="15" height="16" viewBox="0 0 15 16" fill="none" xmlns="http://www.w3.org/2000/svg">
<g clip-path="url(#clip0_109_946)">
<path d="M4 0.5C2.6364 0.5 1 1.2433 1 3.2461V8.6992V12.5C1 12.5 1 13.5 2 13.5V14.5C2 14.5 2 15.5 3 15.5C4 15.5 4 14.5 4 14.5V13.5H11V14.5C11 14.5 11 15.5 12 15.5C13 15.5 13 14.5 13 14.5V13.5C13 13.5 14 13.5 14 12.5V3.2461C14 1.2006 12.764 0.5 11.4004 0.5H4ZM4.25 2H10.75C10.8885 2 11 2.1115 11 2.25C11 2.3885 10.8885 2.5 10.75 2.5H4.25C4.1115 2.5 4 2.3885 4 2.25C4 2.1115 4.1115 2 4.25 2ZM3 3.5H12C13 3.5 13 4.4668 13 4.4668V7.5C13 7.5 13 8.5 12 8.5H3C2 8.5 2 7.5 2 7.5V4.5C2 4.5 2 3.5 3 3.5ZM3 10.5C3.5523 10.5 4 10.9477 4 11.5C4 12.0523 3.5523 12.5 3 12.5C2.4477 12.5 2 12.0523 2 11.5C2 10.9477 2.4477 10.5 3 10.5ZM12 10.5C12.5523 10.5 13 10.9477 13 11.5C13 12.0523 12.5523 12.5 12 12.5C11.4477 12.5 11 12.0523 11 11.5C11 10.9477 11.4477 10.5 12 10.5Z" fill="#E72315"/>
</g>
<defs>
<clipPath id="clip0_109_946">
<rect width="15" height="15" fill="white" transform="translate(0 0.5)"/>
</clipPath>
</defs>
</svg>
