<?xml version="1.0" encoding="iso-8859-1"?>
<!-- Generator: Adobe Illustrator 18.0.0, SVG Export Plug-In . SVG Version: 6.00 Build 0)  -->
<!DOCTYPE svg PUBLIC "-//W3C//DTD SVG 1.1//EN" "http://www.w3.org/Graphics/SVG/1.1/DTD/svg11.dtd">
<svg version="1.1" id="Capa_1" xmlns="http://www.w3.org/2000/svg" xmlns:xlink="http://www.w3.org/1999/xlink" x="0px" y="0px"
	 viewBox="0 0 442.703 442.703" style="enable-background:new 0 0 442.703 442.703;" xml:space="preserve">
<g>
	<path d="M395.295,245.353l-47.798-19.122l-9.44-91.33h7.831c4.143,0,7.5-3.358,7.5-7.5s-3.357-7.5-7.5-7.5h-88.007V13.528
		c0-2.983-1.769-5.683-4.503-6.875c-20.35-8.87-43.694-8.871-64.047,0c-2.735,1.192-4.503,3.892-4.503,6.875v106.373H96.822
		c-4.142,0-7.5,3.358-7.5,7.5s3.358,7.5,7.5,7.5h7.82l-9.432,91.328l-47.802,19.123c-3.839,1.536-5.711,5.89-4.185,9.733
		l61.561,154.93c0.887,2.232,2.789,3.904,5.116,4.498l109.598,27.957c0.608,0.155,1.231,0.233,1.854,0.233
		c0.623,0,1.245-0.078,1.854-0.233l109.598-27.957c2.327-0.594,4.229-2.266,5.116-4.498l61.56-154.93
		C401.006,251.242,399.134,246.888,395.295,245.353z M242.881,18.638V34.57c-14.062-3.907-28.99-3.907-43.053,0V18.638
		C213.732,13.782,228.981,13.781,242.881,18.638z M199.828,50.279c13.907-4.86,29.147-4.86,43.053,0v69.623h-43.053V50.279z
		 M119.722,134.901h203.256l8.79,85.037l-107.63-43.058c-1.788-0.715-3.784-0.715-5.572,0L110.94,219.937L119.722,134.901z
		 M213.852,194.922v146.207l-114.15,15.474L59.927,256.5L213.852,194.922z M105.409,370.966l108.443-14.701v69.284l-96.54-24.625
		L105.409,370.966z M325.391,400.924l-96.539,24.625v-69.284l108.442,14.701L325.391,400.924z M343.001,356.603l-114.149-15.474
		V194.922L382.776,256.5L343.001,356.603z"/>
	<path d="M294.688,163.928h10.77c4.143,0,7.5-3.358,7.5-7.5s-3.357-7.5-7.5-7.5h-10.77c-4.143,0-7.5,3.358-7.5,7.5
		S290.545,163.928,294.688,163.928z"/>
	<path d="M287.996,191.397h16.153c4.143,0,7.5-3.358,7.5-7.5s-3.357-7.5-7.5-7.5h-16.153c-4.143,0-7.5,3.358-7.5,7.5
		S283.854,191.397,287.996,191.397z"/>
	<path d="M153.406,176.397h-16.153c-4.142,0-7.5,3.358-7.5,7.5s3.358,7.5,7.5,7.5h16.153c4.142,0,7.5-3.358,7.5-7.5
		S157.548,176.397,153.406,176.397z"/>
	<path d="M266.694,159.299c0.381,0.9,0.927,1.747,1.63,2.43c4.366,4.498,12.139,1.531,12.762-4.566
		c0.633-6.19-6.489-10.404-11.633-6.974C266.535,152.135,265.322,156.055,266.694,159.299z"/>
	<path d="M137.253,163.928h114.769c4.143,0,7.5-3.358,7.5-7.5s-3.357-7.5-7.5-7.5H137.253c-4.142,0-7.5,3.358-7.5,7.5
		S133.11,163.928,137.253,163.928z"/>
	<path d="M261.54,301.111c10.61,0,18.611-11.654,18.611-27.109s-8.001-27.109-18.611-27.109c-10.61,0-18.612,11.654-18.612,27.109
		S250.93,301.111,261.54,301.111z M261.54,262.054c1.26,1.061,3.611,5.276,3.611,11.948s-2.352,10.887-3.611,11.948
		c-1.26-1.061-3.612-5.275-3.612-11.948S260.28,263.114,261.54,262.054z"/>
	<path d="M181.163,301.111c10.61,0,18.612-11.654,18.612-27.109s-8.001-27.109-18.612-27.109c-10.611,0-18.612,11.654-18.612,27.109
		S170.552,301.111,181.163,301.111z M181.163,262.054c1.26,1.06,3.612,5.275,3.612,11.948s-2.352,10.888-3.612,11.948
		c-1.26-1.06-3.612-5.275-3.612-11.948S179.903,263.114,181.163,262.054z"/>
</g>
<g>
</g>
<g>
</g>
<g>
</g>
<g>
</g>
<g>
</g>
<g>
</g>
<g>
</g>
<g>
</g>
<g>
</g>
<g>
</g>
<g>
</g>
<g>
</g>
<g>
</g>
<g>
</g>
<g>
</g>
</svg>
