<svg width="13" height="20" viewBox="0 0 13 20" fill="none" xmlns="http://www.w3.org/2000/svg">
<g clip-path="url(#clip0_109_938)">
<path d="M9.19644 1.70327C9.19644 2.64403 8.36315 3.40663 7.33528 3.40663C6.30736 3.40663 5.47412 2.64398 5.47412 1.70327C5.47412 0.762503 6.30741 -9.15527e-05 7.33528 -9.15527e-05C8.3632 -9.15527e-05 9.19644 0.762549 9.19644 1.70327Z" fill="#535353"/>
<path d="M4.51235 6.90584C4.51235 6.90584 2.9913 14.134 2.66382 14.6231C2.38374 15.0414 0.198185 18.3233 0.198185 18.3233C-0.268396 19.0235 0.173749 19.5241 0.668069 19.7853C1.08889 20.0076 1.99349 19.9525 2.29259 19.4856C2.29259 19.4856 4.71742 16.0321 4.98198 15.2872C5.16515 14.7716 5.59077 12.6325 5.59077 12.6325C5.59077 12.6325 7.94692 14.8565 8.20496 15.2545C8.53022 15.7561 9.13602 19.253 9.13602 19.253C9.2809 19.8751 9.92925 20.078 10.6043 19.974C11.1374 19.8918 11.6949 19.5617 11.5712 18.958C11.5712 18.958 11.0324 14.9036 10.6043 14.2383C10.0933 13.4444 7.3455 10.7314 7.3455 10.7314L8.13332 7.51954C8.13332 7.51954 8.63898 8.45769 8.99278 8.8633C9.39514 9.32458 11.9292 10.6659 11.9292 10.6659C12.1617 10.8086 12.6879 10.73 12.8961 10.3709C13.0633 10.0828 13.0554 9.61596 12.6813 9.38769C12.6813 9.38769 10.5929 8.18777 10.1029 7.8145C9.55792 7.40017 8.45545 4.6361 8.45545 4.6361C8.11349 4.20542 7.64572 3.73026 6.84396 3.71842C6.03584 3.70648 5.63135 4.11392 5.26827 4.34111C5.26827 4.34111 2.17259 6.41072 1.86626 6.83198C1.55809 7.25577 1.0068 10.4371 1.0068 10.4371C0.920384 10.7996 1.07509 11.0911 1.54394 11.191C2.11764 11.3131 2.52885 10.9862 2.58244 10.7321C2.58244 10.7321 2.93593 8.21929 3.19123 7.848C3.48847 7.4157 4.51209 6.90641 4.51209 6.90641L4.51235 6.90584Z" fill="#535353"/>
</g>
<defs>
<clipPath id="clip0_109_938">
<rect width="13" height="20" fill="white"/>
</clipPath>
</defs>
</svg>
